<svg id="bank-transfers" fill="none" viewBox="0 0 32 32" xmlns="http://www.w3.org/2000/svg"><path d="m6 13h4v14h-4z" fill="var(--icons-bg-fill, #ffffff)"/><path d="m14 13h4v14h-4z" fill="var(--icons-bg-fill, #ffffff)"/><path d="m22 13h4v14h-4z" fill="var(--icons-bg-fill, #ffffff)"/><g clip-rule="evenodd" fill-rule="evenodd"><path d="m5 12h6v16h-6zm2 2v12h2v-12z" fill="var(--icons-primary, #0097db)"/><path d="m21 12h6v16h-6zm2 2v12h2v-12z" fill="var(--icons-primary, #0097db)"/><path d="m13 12h6v16h-6zm2 2v12h2v-12z" fill="var(--icons-primary, #0097db)"/><path d="m2 29c0-1.6569 1.34315-3 3-3h22c1.6569 0 3 1.3431 3 3v1h-2v-1c0-.5523-.4477-1-1-1h-22c-.55228 0-1 .4477-1 1v1h-2z" fill="var(--icons-secondary, #333333)"/><path d="m14.2259 2.06101c1.056-.77438 2.4922-.77438 3.5482 0l11.354 8.32629c1.5587 1.143.7502 3.6128-1.1828 3.6128h-23.89067c-1.93293 0-2.74146-2.4698-1.18273-3.6128zm2.3654 1.61281c-.3519-.25813-.8307-.25813-1.1827 0l-11.35397 8.32628h23.89067z" fill="var(--icons-secondary, #333333)"/></g></svg>