<svg id="cash-deposits" fill="none" viewBox="0 0 32 32" xmlns="http://www.w3.org/2000/svg"><path clip-rule="evenodd" d="m6 16c0-1.6569 1.34315-3 3-3h20c1.6569 0 3 1.3431 3 3v10c0 1.6569-1.3431 3-3 3h-20c-1.65685 0-3-1.3431-3-3zm3-1c-.55228 0-1 .4477-1 1v10c0 .5523.44772 1 1 1h20c.5523 0 1-.4477 1-1v-10c0-.5523-.4477-1-1-1z" fill="var(--icons-secondary, #333333)" fill-rule="evenodd"/><path clip-rule="evenodd" d="m19 23c1.1046 0 2-.8954 2-2s-.8954-2-2-2-2 .8954-2 2 .8954 2 2 2zm0 2c2.2091 0 4-1.7909 4-4s-1.7909-4-4-4-4 1.7909-4 4 1.7909 4 4 4z" fill="var(--icons-secondary, #333333)" fill-rule="evenodd"/><path d="m1 6c0-1.10457.89543-2 2-2h20c1.1046 0 2 .89543 2 2v10c0 1.1046-.8954 2-2 2h-20c-1.10457 0-2-.8954-2-2z" fill="var(--icons-bg-fill, #ffffff)"/><g clip-rule="evenodd" fill="var(--icons-primary, #0097db)" fill-rule="evenodd"><path d="m0 6c0-1.65685 1.34315-3 3-3h20c1.6569 0 3 1.34315 3 3v10c0 1.6569-1.3431 3-3 3h-20c-1.65686 0-3-1.3431-3-3zm3-1c-.55228 0-1 .44772-1 1v10c0 .5523.44772 1 1 1h20c.5523 0 1-.4477 1-1v-10c0-.55228-.4477-1-1-1z"/><path d="m13 13c1.1046 0 2-.8954 2-2 0-1.10457-.8954-2-2-2s-2 .89543-2 2c0 1.1046.8954 2 2 2zm0 2c2.2091 0 4-1.7909 4-4 0-2.20914-1.7909-4-4-4s-4 1.79086-4 4c0 2.2091 1.7909 4 4 4z"/></g></svg>