<svg id="chat" fill="none" viewBox="0 0 32 32" xmlns="http://www.w3.org/2000/svg"><g fill="var(--icons-secondary, #333333)"><path clip-rule="evenodd" d="m30 15c0-1.6569-1.3431-3-3-3h-16c-1.65685 0-3 1.3431-3 3v9.7931c0 1.6569 1.34314 3 3 3h9.0015c.3143 0 .6104.1478.7993.3991l.468.6225c1.5655 2.0821 4.7127 1.2807 5.3017-1.0216h.4295c1.6569 0 3-1.3431 3-3zm-3-1c.5523 0 1 .4477 1 1v9.7931c0 .5523-.4477 1-1 1h-2.3333v1.2187c0 .9604-1.2222 1.3686-1.7993.601l-.4681-.6225c-.5667-.7538-1.4548-1.1972-2.3978-1.1972h-9.0015c-.5523 0-1-.4477-1-1v-9.7931c0-.5523.4477-1 1-1z" fill-rule="evenodd"/><path d="m12 18c0-.5523.4477-1 1-1h8c.5523 0 1 .4477 1 1s-.4477 1-1 1h-8c-.5523 0-1-.4477-1-1z"/><path d="m12 22c0-.5523.4477-1 1-1h4c.5523 0 1 .4477 1 1s-.4477 1-1 1h-4c-.5523 0-1-.4477-1-1z"/></g><path d="m21 3h-16c-1.10457 0-2 .89543-2 2v9.7931c0 1.1046.89543 2 2 2h1.33333v.2187c0 1.9208 2.44427 2.7372 3.59858 1.2019l.46799-.6225c.3778-.5025.9699-.7981 1.5986-.7981h9.0015c1.1046 0 2-.8954 2-2v-9.7931c0-1.10457-.8954-2-2-2z" fill="var(--icons-bg-fill, #ffffff)"/><path clip-rule="evenodd" d="m2 5c0-1.65685 1.34314-3 3-3h16c1.6569 0 3 1.34315 3 3v9.7931c0 1.6569-1.3431 3-3 3h-9.0015c-.3143 0-.6104.1478-.7993.3991l-.468.6225c-1.56549 2.0821-4.71271 1.2807-5.30172-1.0216h-.42948c-1.65686 0-3-1.3431-3-3zm3-1c-.55228 0-1 .44772-1 1v9.7931c0 .5523.44772 1 1 1h2.33333v1.2187c0 .9604 1.22214 1.3686 1.79929.601l.46803-.6225c.56675-.7538 1.45485-1.1972 2.39785-1.1972h9.0015c.5523 0 1-.4477 1-1v-9.7931c0-.55228-.4477-1-1-1z" fill="var(--icons-primary, #0097db)" fill-rule="evenodd"/><path d="m6 8c0-.55228.44772-1 1-1h8c.5523 0 1 .44772 1 1s-.4477 1-1 1h-8c-.55228 0-1-.44772-1-1z" fill="var(--icons-primary, #0097db)"/><path d="m6 12c0-.5523.44772-1 1-1h4c.5523 0 1 .4477 1 1s-.4477 1-1 1h-4c-.55228 0-1-.4477-1-1z" fill="var(--icons-primary, #0097db)"/></svg>