<svg id="debitcredit-cards" fill="none" viewBox="0 0 32 32" xmlns="http://www.w3.org/2000/svg"><path clip-rule="evenodd" d="m6 15c0-1.6569 1.34315-3 3-3h20c1.6569 0 3 1.3431 3 3v10c0 1.6569-1.3431 3-3 3h-20c-1.65686 0-3-1.3431-3-3zm3-1c-.55228 0-1 .4477-1 1v10c0 .5523.44772 1 1 1h20c.5523 0 1-.4477 1-1v-10c0-.5523-.4477-1-1-1z" fill="var(--icons-secondary, #333333)" fill-rule="evenodd"/><path clip-rule="evenodd" d="m16 21.1543 1.0015.5793c.2921.169.6309.2664.9985.2664 1.1045 0 1.9999-.8954 1.9999-2s-.8954-2-1.9999-2c-.3676 0-.7064.0974-.9985.2664l-1.0015.5793-1.0015-.5793c-.2922-.169-.631-.2664-.9986-.2664-1.1045 0-1.9999.8954-1.9999 2s.8954 2 1.9999 2c.3676 0 .7064-.0974.9986-.2664zm0-4.6191c-.5884-.3404-1.2715-.5352-2.0001-.5352-2.2091 0-3.9999 1.7909-3.9999 4s1.7908 4 3.9999 4c.7286 0 1.4117-.1948 2.0001-.5352.5883.3404 1.2714.5352 2 .5352 2.2091 0 3.9999-1.7909 3.9999-4s-1.7908-4-3.9999-4c-.7286 0-1.4117.1948-2 .5352z" fill="var(--icons-secondary, #333333)" fill-rule="evenodd"/><path d="m1 7c0-1.10457.89543-2 2-2h20c1.1046 0 2 .89543 2 2v10c0 1.1046-.8954 2-2 2h-20c-1.10457 0-2-.8954-2-2z" fill="var(--icons-bg-fill, #ffffff)"/><g clip-rule="evenodd" fill-rule="evenodd"><path d="m0 7c0-1.65685 1.34315-3 3-3h20c1.6569 0 3 1.34315 3 3v10c0 1.6569-1.3431 3-3 3h-20c-1.65686 0-3-1.3431-3-3zm3-1c-.55228 0-1 .44772-1 1v10c0 .5523.44772 1 1 1h20c.5523 0 1-.4477 1-1v-10c0-.55228-.4477-1-1-1z" fill="var(--icons-primary, #0097db)"/><path d="m9.99997 15.4648c-.58835.3404-1.27145.5352-2.00004.5352-2.2091 0-3.99993-1.7909-3.99993-4 0-2.20914 1.79083-4 3.99993-4 .72859 0 1.41169.1948 2.00004.53517.58833-.34037 1.27143-.53517 2.00003-.53517 2.2091 0 3.9999 1.79086 3.9999 4 0 2.2091-1.7908 4-3.9999 4-.7286 0-1.4117-.1948-2.00003-.5352z" fill="var(--icons-bg-fill, #ffffff)"/><path d="m9.99997 13.1543 1.00153.5793c.2921.169.6309.2664.9985.2664 1.1045 0 1.9999-.8954 1.9999-2s-.8954-2-1.9999-2c-.3676 0-.7064.0974-.9985.2664l-1.00153.5793-1.0015-.5793c-.29213-.169-.63093-.2664-.99854-.2664-1.1045 0-1.99993.8954-1.99993 2s.89543 2 1.99993 2c.36761 0 .70641-.0974.99854-.2664zm0-4.61913c-.58835-.34037-1.27145-.53517-2.00004-.53517-2.2091 0-3.99993 1.79086-3.99993 4 0 2.2091 1.79083 4 3.99993 4 .72859 0 1.41169-.1948 2.00004-.5352.58833.3404 1.27143.5352 2.00003.5352 2.2091 0 3.9999-1.7909 3.9999-4 0-2.20914-1.7908-4-3.9999-4-.7286 0-1.4117.1948-2.00003.53517z" fill="var(--icons-primary, #0097db)"/></g></svg>