<svg id="digital-currencies" fill="none" viewBox="0 0 32 32" xmlns="http://www.w3.org/2000/svg"><path d="m8.66669 10.6666c0-1.10454.89543-1.99997 2.00001-1.99997h10.6667c1.1045 0 2 .89543 2 1.99997v10.6667c0 1.1046-.8955 2-2 2h-10.6667c-1.10458 0-2.00001-.8954-2.00001-2z" fill="var(--icons-bg-fill, #ffffff)"/><path clip-rule="evenodd" d="m8 11c0-1.65685 1.34315-3 3-3h10c1.6569 0 3 1.34315 3 3v10c0 1.6569-1.3431 3-3 3h-10c-1.65685 0-3-1.3431-3-3zm3-1c-.5523 0-1 .4477-1 1v10c0 .5523.4477 1 1 1h10c.5523 0 1-.4477 1-1v-10c0-.5523-.4477-1-1-1z" fill="var(--icons-primary, #0097db)" fill-rule="evenodd"/><path d="m13 19c0-.5523.4477-1 1-1h3.3333c.5523 0 1 .4477 1 1s-.4477 1-1 1h-3.3333c-.5523 0-1-.4477-1-1z" fill="var(--icons-primary, #0097db)"/><path clip-rule="evenodd" d="m15 3c0-.55228.4477-1 1-1s1 .44772 1 1v1h2c0-.55228.4477-1 1-1s1 .44772 1 1h2v-1c0-.55228.4477-1 1-1s1 .44772 1 1v1c1.6569 0 3 1.34315 3 3h1c.5523 0 1 .44772 1 1s-.4477 1-1 1h-1v2c.5523 0 1 .4477 1 1s-.4477 1-1 1v2h1c.5523 0 1 .4477 1 1s-.4477 1-1 1h-1v2c.5523 0 1 .4477 1 1s-.4477 1-1 1v2h1c.5523 0 1 .4477 1 1s-.4477 1-1 1h-1c0 1.6569-1.3431 3-3 3v1c0 .5523-.4477 1-1 1s-1-.4477-1-1v-1h-2c0 .5523-.4477 1-1 1s-1-.4477-1-1h-1.9999v1c0 .5523-.4477 1-1 1s-1-.4477-1-1v-1h-2c0 .5523-.4477 1-1 1s-1-.4477-1-1h-2.0001v1c0 .5523-.44772 1-1 1s-1-.4477-1-1v-1c-1.65686 0-3-1.3431-3-3h-1c-.55228 0-1-.4477-1-1s.44772-1 1-1h1v-2c-.55228 0-1-.4477-1-1s.44772-1 1-1v-2h-1c-.55228 0-1-.4477-1-1s.44772-1 1-1h1v-2c-.55228 0-1-.4477-1-1s.44772-1 1-1v-2h-1c-.55228 0-1-.44772-1-1s.44772-1 1-1h1c0-1.65686 1.34315-3 3-3v-1c0-.55228.44772-1 1-1s1 .44772 1 1v1h2c0-.55228.4477-1 1-1s1 .44772 1 1h2zm-2.9999 23h7.992.0079.0079 3.9921 1c.5523 0 1-.4477 1-1v-1-4-4-4-4-1c0-.55229-.4477-1-1-1h-1-4-4-4-4-1c-.55229 0-1 .44772-1 1v1 4 4 4 4 1c0 .5523.44772 1 1 1h1z" fill="var(--icons-secondary, #333333)" fill-rule="evenodd"/><g fill="var(--icons-primary, #0097db)"><path d="m19 13c.5523 0 1 .4477 1 1v2c0 .5523-.4477 1-1 1s-1-.4477-1-1v-2c0-.5523.4477-1 1-1z"/><path d="m13 12c.5523 0 1 .4477 1 1v2c0 .5523-.4477 1-1 1s-1-.4477-1-1v-2c0-.5523.4477-1 1-1z"/></g></svg>