<svg id="gift-cards" fill="none" viewBox="0 0 32 32" xmlns="http://www.w3.org/2000/svg"><g fill="var(--icons-secondary, #333333)"><g clip-rule="evenodd" fill-rule="evenodd"><path d="m6 7c0-1.65685 1.34315-3 3-3h20c1.6569 0 3 1.34315 3 3v10c0 1.6569-1.3431 3-3 3h-20c-1.65686 0-3-1.3431-3-3zm3-1c-.55228 0-1 .44772-1 1v10c0 .5523.44772 1 1 1h20c.5523 0 1-.4477 1-1v-10c0-.55228-.4477-1-1-1z"/><path d="m17.3333 9.33333c-.3681 0-.6666.29848-.6666.66667 0 .3682.2985.6667.6666.6667.3682 0 .6667-.2985.6667-.6667 0-.36819-.2985-.66667-.6667-.66667zm-2 .66667c0-1.10457.8955-2 2-2 1.1046 0 2 .89543 2 2 0 1.1046-.8954 2-2 2-1.1045 0-2-.8954-2-2z"/><path d="m22.6666 13.3333c-.3682 0-.6666.2985-.6666.6667s.2984.6667.6666.6667.6667-.2985.6667-.6667-.2985-.6667-.6667-.6667zm-2 .6667c0-1.1046.8955-2 2-2 1.1046 0 2 .8954 2 2s-.8954 2-2 2c-1.1045 0-2-.8954-2-2z"/></g><path d="m21.8521 9.13803c.2603-.26035.6824-.26035.9428 0 .2603.26035.2603.68246 0 .94277l-4.7141 4.7141c-.2603.2603-.6824.2603-.9428 0-.2603-.2604-.2603-.6825 0-.9428z"/></g><path d="m.666656 14.6666c0-1.1045.895434-2 2.000004-2h20.00004c1.1045 0 2 .8955 2 2v10.6667c0 1.1046-.8955 2-2 2h-20.00004c-1.10457 0-2.000004-.8954-2.000004-2z" fill="var(--icons-bg-fill, #ffffff)"/><g fill="var(--icons-primary, #0097db)"><path clip-rule="evenodd" d="m0 15c0-1.6569 1.34315-3 3-3h20c1.6569 0 3 1.3431 3 3v10c0 1.6569-1.3431 3-3 3h-20c-1.65686 0-3-1.3431-3-3zm3-1c-.55228 0-1 .4477-1 1v10c0 .5523.44772 1 1 1h20c.5523 0 1-.4477 1-1v-10c0-.5523-.4477-1-1-1z" fill-rule="evenodd"/><path clip-rule="evenodd" d="m10.6667 17.3333c-.3682 0-.66671.2985-.66671.6667s.29851.6667.66671.6667c.3681 0 .6666-.2985.6666-.6667s-.2985-.6667-.6666-.6667zm-2.00004.6667c0-1.1046.89543-2 2.00004-2 1.1045 0 2 .8954 2 2s-.8955 2-2 2c-1.10461 0-2.00004-.8954-2.00004-2z" fill-rule="evenodd"/><path clip-rule="evenodd" d="m16 21.3333c-.3682 0-.6666.2985-.6666.6667s.2984.6667.6666.6667.6667-.2985.6667-.6667-.2985-.6667-.6667-.6667zm-2 .6667c0-1.1046.8955-2 2-2 1.1046 0 2 .8954 2 2s-.8954 2-2 2c-1.1045 0-2-.8954-2-2z" fill-rule="evenodd"/><path d="m15.1855 17.138c.2603-.2603.6824-.2603.9428 0 .2603.2604.2603.6825 0 .9428l-4.7141 4.7141c-.2603.2603-.6824.2603-.9428 0-.2603-.2604-.2603-.6825 0-.9428z"/></g></svg>