<svg xmlns="http://www.w3.org/2000/svg" id="goods-and-services" width="32" height="32" fill="none" viewBox="0 0 32 32"><path fill="var(--icons-secondary, #454c59)" fill-rule="evenodd" d="M4 13h24v15h2v2H2v-2h2V13zm22 2v13H15V18H8v10H6V15h20zm-13 5v8h-3v-8h3zm8-2a3 3 0 00-3 3v3h6v-3a3 3 0 00-3-3zm1 4h-2v-1a1 1 0 112 0v1z" clip-rule="evenodd"/><path fill="var(--icons-bg-fill, #ffffff)" fill-rule="evenodd" d="M5.904 3.9A3 3 0 018.695 2h14.61a3 3 0 012.791 1.9l3.296 8.367A2 2 0 0127.532 15H4.468a2 2 0 01-1.861-2.733L5.904 3.9z" clip-rule="evenodd"/><path fill="var(--icons-primary, #0097db)" fill-rule="evenodd" d="M8.695 2a3 3 0 00-2.791 1.9l-3.296 8.367A2 2 0 004.468 15h23.063a2 2 0 001.861-2.733L26.096 3.9A3 3 0 0023.305 2H8.695zm-.93 2.633A1 1 0 018.695 4h14.61a1 1 0 01.93.633L27.531 13H4.47l.788-2H14a1 1 0 100-2H6.044l1.72-4.367z" clip-rule="evenodd"/></svg>