<svg id="online-transfers" fill="none" viewBox="0 0 32 32" xmlns="http://www.w3.org/2000/svg"><g fill="var(--icons-secondary, #333333)"><path clip-rule="evenodd" d="m5 8c-1.65685 0-3 1.34315-3 3v1 2 13c0 1.6569 1.34314 3 3 3h20c1.6569 0 3-1.3431 3-3v-4h-2v4c0 .5523-.4477 1-1 1h-20c-.55228 0-1-.4477-1-1v-13h21c.5523 0 1 .4477 1 1v4h2v-4c0-1.6569-1.3431-3-3-3v-1c0-1.65685-1.3431-3-3-3zm18 4v-1c0-.5523-.4477-1-1-1h-17c-.55228 0-1 .4477-1 1v1z" fill-rule="evenodd"/><path d="m4 20c-.55228 0-1-.4477-1-1s.44772-1 1-1h4c.55228 0 1 .4477 1 1s-.44772 1-1 1z"/><path clip-rule="evenodd" d="m12 25.5c.3905-.3905.3905-1.0237 0-1.4142l-1.2071-1.2071c-.5626-.5626-1.32568-.8787-2.12133-.8787h-4.67157v2h4.67157c.26522 0 .51957.1053.70711.2929l1.20712 1.2071c.3905.3905 1.0237.3905 1.4142 0z" fill-rule="evenodd"/><path clip-rule="evenodd" d="m21 21c0-1.6569 1.3431-3 3-3h3c1.6569 0 3 1.3431 3 3s-1.3431 3-3 3h-3c-1.6569 0-3-1.3431-3-3zm3-1c-.5523 0-1 .4477-1 1s.4477 1 1 1h3c.5523 0 1-.4477 1-1s-.4477-1-1-1z" fill-rule="evenodd"/></g><path d="m7 4.28571c0-.71008.89543-1.28571 2-1.28571h9c1.1046 0 2 .57563 2 1.28571v7.71429h-13z" fill="var(--icons-bg-fill, #ffffff)"/><path clip-rule="evenodd" d="m9 2c-1.65685 0-3 1.34315-3 3v7h2v-7c0-.55228.44772-1 1-1h9c.5523 0 1 .44772 1 1v7h2v-7c0-1.65685-1.3431-3-3-3z" fill="var(--icons-primary, #0097db)" fill-rule="evenodd"/><rect fill="var(--icons-primary, #0097db)" height="5" rx="1" width="2" x="14" y="6"/></svg>