<svg id="trade-automatic" xmlns="http://www.w3.org/2000/svg" width="32" height="32" fill="none" viewBox="0 0 32 32"><path fill-rule="evenodd" d="M10.293 7.293a1 1 0 011.414 0l2 2a1 1 0 010 1.414l-2 2a1 1 0 01-1.414-1.414L11.586 10l-1.293-1.293a1 1 0 010-1.414z" clip-rule="evenodd" fill="var(--icons-secondary, #454c59)"/><path fill-rule="evenodd" d="M8 11a1 1 0 00-1 1v5H5v-5a3 3 0 013-3h5v2H8zM23 25a1 1 0 001-1v-5h2v5a3 3 0 01-3 3h-3v-2h3z" clip-rule="evenodd" fill="var(--icons-secondary, #454c59)"/><circle cx="24" cy="9" r="7" stroke-width="2" fill="var(--icons-bg-fill, #ffffff)" stroke="var(--icons-primary, #0097db)"/><path fill-rule="evenodd" d="M27.614 6.21a1 1 0 01.175 1.404l-3.5 4.5a1 1 0 01-1.496.093l-2.5-2.5a1 1 0 011.414-1.414l1.7 1.699 2.804-3.606a1 1 0 011.403-.175z" clip-rule="evenodd" fill="var(--icons-primary, #0097db)"/><path fill-rule="evenodd" d="M3 19a3 3 0 00-3 3v6a3 3 0 003 3h12a3 3 0 003-3v-6a3 3 0 00-3-3H3zm-1 3a1 1 0 011-1h12a1 1 0 011 1v6a1 1 0 01-1 1H3a1 1 0 01-1-1v-6zm7 5a2 2 0 100-4 2 2 0 000 4z" clip-rule="evenodd" fill="var(--icons-secondary, #454c59)"/><path stroke="#623590" stroke-linecap="round" stroke-linejoin="round" stroke-width="2" d="M28.134 29.5L29 28l.866 1.5h-1.732z" fill="var(--icons-primary, #0097db)"/><path fill="#623590" d="M4.19 1.022a.5.5 0 01.895.24l.15 1.214a.5.5 0 00.333.412l1.157.399a.5.5 0 01.048.926l-1.108.517a.5.5 0 00-.289.444l-.022 1.223a.5.5 0 01-.865.332l-.835-.894a.5.5 0 00-.511-.137l-1.17.357a.5.5 0 01-.584-.72l.593-1.07a.5.5 0 00-.028-.53l-.7-1.002a.5.5 0 01.504-.777l1.2.233a.5.5 0 00.495-.19l.737-.977z"/></svg>