<svg fill="none" height="48" viewBox="0 0 49 48" width="49" xmlns="http://www.w3.org/2000/svg" xmlns:xlink="http://www.w3.org/1999/xlink"><linearGradient id="a"><stop offset="0" stop-color="#ffbe36"/><stop offset="1" stop-color="#19bf33"/></linearGradient><linearGradient id="b" gradientUnits="userSpaceOnUse" x1="10.5" x2="48.5" xlink:href="#a" y1="31" y2="31"/><linearGradient id="c" gradientUnits="userSpaceOnUse" x1="24.5" x2="34.5" xlink:href="#a" y1="31" y2="31"/><linearGradient id="d"><stop offset="0" stop-color="#e3394d"/><stop offset="1" stop-color="#46127b"/></linearGradient><linearGradient id="e" gradientUnits="userSpaceOnUse" x1="10.5" x2="42.5" xlink:href="#d" y1="24.5" y2="24.5"/><linearGradient id="f" gradientUnits="userSpaceOnUse" x1="4.5" x2="37.5" xlink:href="#d" y1="18.5" y2="18.5"/><linearGradient id="g" gradientUnits="userSpaceOnUse" x1=".5" x2="38.5" xlink:href="#d" y1="17" y2="17"/><linearGradient id="h" gradientUnits="userSpaceOnUse" x1="14.5" x2="24.5" xlink:href="#d" y1="17" y2="17"/><clipPath id="i"><path d="m.5 0h48v48h-48z"/></clipPath><g clip-path="url(#i)"><path clip-rule="evenodd" d="m10.5 23c0-1.6569 1.3431-3 3-3h32c1.6569 0 3 1.3431 3 3v16c0 1.6569-1.3431 3-3 3h-32c-1.6569 0-3-1.3431-3-3zm3-1c-.5523 0-1 .4477-1 1v16c0 .5523.4477 1 1 1h32c.5523 0 1-.4477 1-1v-16c0-.5523-.4477-1-1-1z" fill="url(#b)" fill-rule="evenodd"/><path clip-rule="evenodd" d="m29.5 34c1.6569 0 3-1.3431 3-3s-1.3431-3-3-3-3 1.3431-3 3 1.3431 3 3 3zm0 2c2.7614 0 5-2.2386 5-5s-2.2386-5-5-5-5 2.2386-5 5 2.2386 5 5 5z" fill="url(#c)" fill-rule="evenodd"/><path d="m10.5 18c0-1.1046.8954-2 2-2h28c1.1046 0 2 .8954 2 2v13c0 1.1046-.8954 2-2 2h-30z" fill="url(#e)" opacity=".15"/><path d="m1.5 9c0-1.10457.89543-2 2-2h32c1.1046 0 2 .89543 2 2v16c0 1.1046-.8954 2-2 2h-32c-1.10457 0-2-.8954-2-2z" fill="#fff"/><path d="m4.5 12c0-1.1046.89543-2 2-2h31v17h-33z" fill="url(#f)" opacity=".2"/><path clip-rule="evenodd" d="m.5 9c0-1.65685 1.34315-3 3-3h32c1.6569 0 3 1.34315 3 3v16c0 1.6569-1.3431 3-3 3h-32c-1.65685 0-3-1.3431-3-3zm3-1c-.55228 0-1 .44772-1 1v16c0 .5523.44772 1 1 1h32c.5523 0 1-.4477 1-1v-16c0-.55228-.4477-1-1-1z" fill="url(#g)" fill-rule="evenodd"/><path d="m23.5 17c0 2.2091-1.7909 4-4 4s-4-1.7909-4-4 1.7909-4 4-4 4 1.7909 4 4z" fill="#fff"/><path clip-rule="evenodd" d="m19.5 14c-1.6569 0-3 1.3431-3 3s1.3431 3 3 3 3-1.3431 3-3-1.3431-3-3-3zm-5 3c0-2.7614 2.2386-5 5-5s5 2.2386 5 5-2.2386 5-5 5-5-2.2386-5-5z" fill="url(#h)" fill-rule="evenodd"/></g></svg>