<svg fill="none" viewBox="0 0 117 91" xmlns="http://www.w3.org/2000/svg"><g filter="url(#a)"><path d="M12 12a8 8 0 018-8h77a8 8 0 018 8v51a8 8 0 01-8 8H20a8 8 0 01-8-8V12z" fill="#FBFBFB"/><path d="M47.5 51.52V23.606a1.5 1.5 0 012.294-1.272l23.13 14.438a1.5 1.5 0 01-.04 2.568L49.755 52.816A1.5 1.5 0 0147.5 51.52z" fill="#00A5EF" stroke="#D8D8D8"/><path d="M20 5h77V3H20v2zm84 7v51h2V12h-2zm-7 58H20v2h77v-2zm-84-7V12h-2v51h2zm7 7a7 7 0 01-7-7h-2a9 9 0 009 9v-2zm84-7a7 7 0 01-7 7v2a9 9 0 009-9h-2zM97 5a7 7 0 017 7h2a9 9 0 00-9-9v2zM20 3a9 9 0 00-9 9h2a7 7 0 017-7V3z" fill="#D8D8D8"/></g><defs><filter id="a" x="0" y="0" width="117" height="91" color-interpolation-filters="sRGB" filterUnits="userSpaceOnUse"><feFlood flood-opacity="0" result="BackgroundImageFix"/><feColorMatrix in="SourceAlpha" values="0 0 0 0 0 0 0 0 0 0 0 0 0 0 0 0 0 0 127 0"/><feOffset dy="8"/><feGaussianBlur stdDeviation="6"/><feColorMatrix values="0 0 0 0 0.2 0 0 0 0 0.2 0 0 0 0 0.2 0 0 0 0.08 0"/><feBlend in2="BackgroundImageFix" result="effect1_dropShadow"/><feBlend in="SourceGraphic" in2="effect1_dropShadow" result="shape"/></filter></defs></svg>