<svg id="affiliate" fill="none" viewBox="0 0 48 48" xmlns="http://www.w3.org/2000/svg"><path d="m33 17c0 4.9706-4.0294 9-9 9s-9-4.0294-9-9 4.0294-9 9-9 9 4.0294 9 9z" fill="var(--icons-secondary, #333333)" opacity=".15"/><path d="m33 12c0 4.9706-4.0294 9-9 9s-9-4.0294-9-9c0-4.97056 4.0294-9 9-9s9 4.02944 9 9z" fill="var(--icons-bg-fill, #ffffff)"/><path d="m33 13.5c0 4.1421-4.0294 7.5-9 7.5s-9-3.3579-9-7.5c0-4.14214 4.0294-7.5 9-7.5s9 3.35786 9 7.5z" fill="var(--icons-primary, #0097db)" opacity=".2"/><path d="m27 10c0 1.6569-1.3431 3-3 3s-3-1.3431-3-3c0-1.65685 1.3431-3 3-3s3 1.34315 3 3z" fill="var(--icons-bg-fill, #ffffff)"/><path clip-rule="evenodd" d="m24 8c-1.1046 0-2 .89543-2 2 0 1.1046.8954 2 2 2s2-.8954 2-2c0-1.10457-.8954-2-2-2zm-4 2c0-2.20914 1.7909-4 4-4s4 1.79086 4 4c0 2.2091-1.7909 4-4 4s-4-1.7909-4-4z" fill="var(--icons-primary, #0097db)" fill-rule="evenodd"/><path clip-rule="evenodd" d="m16 12c0-4.41828 3.5817-8 8-8s8 3.58172 8 8c0 2.4076-1.0636 4.5669-2.7465 6.0335-.333-.4018-.7521-.7415-1.2035-1.0123-1.0849-.651-2.5192-1.0212-4.05-1.0212s-2.9651.3702-4.05 1.0212c-.4514.2708-.8705.6105-1.2035 1.0123-1.6829-1.4666-2.7465-3.6259-2.7465-6.0335zm4.4231 7.1578c1.0764.5389 2.2912.8422 3.5769.8422s2.5005-.3033 3.5769-.8422c-.1413-.1401-.3238-.2824-.5559-.4216-.7247-.4348-1.7904-.7362-3.021-.7362s-2.2963.3014-3.021.7362c-.2321.1392-.4146.2815-.5559.4216zm3.5769-17.1578c-5.5228 0-10 4.47715-10 10 0 5.5228 4.4772 10 10 10s10-4.4772 10-10c0-5.52285-4.4772-10-10-10z" fill="var(--icons-primary, #0097db)" fill-rule="evenodd"/><g fill="var(--icons-secondary, #333333)"><path clip-rule="evenodd" d="m8 36c-2.20914 0-4 1.7909-4 4s1.79086 4 4 4c2.2091 0 4-1.7909 4-4s-1.7909-4-4-4zm-6 4c0-3.3137 2.68629-6 6-6 3.3137 0 6 2.6863 6 6s-2.6863 6-6 6c-3.31371 0-6-2.6863-6-6z" fill-rule="evenodd"/><path clip-rule="evenodd" d="m40 36c-2.2091 0-4 1.7909-4 4s1.7909 4 4 4 4-1.7909 4-4-1.7909-4-4-4zm-6 4c0-3.3137 2.6863-6 6-6s6 2.6863 6 6-2.6863 6-6 6-6-2.6863-6-6z" fill-rule="evenodd"/><path clip-rule="evenodd" d="m24 36c-2.2091 0-4 1.7909-4 4s1.7909 4 4 4 4-1.7909 4-4-1.7909-4-4-4zm-6 4c0-3.3137 2.6863-6 6-6s6 2.6863 6 6-2.6863 6-6 6-6-2.6863-6-6z" fill-rule="evenodd"/><path d="m13.5 22.9019c.2761-.4783.8877-.6422 1.366-.366.4783.2761.6422.8877.3661 1.366l-4 6.9282c-.2762.4783-.8878.6422-1.36607.366-.4783-.2761-.64217-.8877-.36603-1.366z"/><path d="m34.2321 22.9019c-.2762-.4783-.8878-.6422-1.3661-.366-.4783.2761-.6421.8877-.366 1.366l4 6.9282c.2761.4783.8877.6422 1.366.366.4783-.2761.6422-.8877.3661-1.366z"/><path d="m23 31c0 .5523.4477 1 1 1s1-.4477 1-1v-6c0-.5523-.4477-1-1-1s-1 .4477-1 1z"/></g></svg>