<svg id="bank-transfers" fill="none" viewBox="0 0 48 48" xmlns="http://www.w3.org/2000/svg"><path d="m9 19h6v19h-6z" fill="var(--icons-bg-fill, #ffffff)"/><path d="m21 19h6v19h-6z" fill="var(--icons-bg-fill, #ffffff)"/><path d="m33 19h6v19h-6z" fill="var(--icons-bg-fill, #ffffff)"/><path d="m9 19h6v19h-6z" fill="var(--icons-primary, #0097DB)" fill-opacity=".2"/><path clip-rule="evenodd" d="m8 18h8v21h-8zm2 2v17h4v-17z" fill="var(--icons-primary, #0097DB)" fill-rule="evenodd"/><path d="m33 19h6v19h-6z" fill="var(--icons-primary, #0097DB)" fill-opacity=".2"/><path clip-rule="evenodd" d="m32 18h8v21h-8zm2 2v17h4v-17z" fill="var(--icons-primary, #0097DB)" fill-rule="evenodd"/><path d="m21 19h6v19h-6z" fill="var(--icons-primary, #0097DB)" fill-opacity=".2"/><path clip-rule="evenodd" d="m20 18h8v21h-8zm2 2v17h4v-17z" fill="var(--icons-primary, #0097DB)" fill-rule="evenodd"/><path clip-rule="evenodd" d="m8 37c-1.65685 0-3 1.3431-3 3v1c-1.65685 0-3 1.3431-3 3v2h2v-2c0-.5523.44772-1 1-1h38c.5523 0 1 .4477 1 1v2h2v-2c0-1.6569-1.3431-3-3-3v-1c0-1.6569-1.3431-3-3-3zm33 4v-1c0-.5523-.4477-1-1-1h-32c-.55228 0-1 .4477-1 1v1z" fill="var(--icons-secondary, #333333)" fill-rule="evenodd"/><path d="m8 19h8v3h-8z" fill="var(--icons-secondary, #333333)" opacity=".15"/><path d="m20 19h8v3h-8z" fill="var(--icons-secondary, #333333)" opacity=".15"/><path d="m32 19h8v3h-8z" fill="var(--icons-secondary, #333333)" opacity=".15"/><path clip-rule="evenodd" d="m22.2355 3.04681c1.0519-.76505 2.4771-.76505 3.529 0l18.3367 13.33579c1.5665 1.1392.7606 3.6174-1.1764 3.6174h-37.84961c-1.93696 0-2.74284-2.4782-1.17635-3.6174zm2.3527 1.61748c-.3507-.25502-.8257-.25502-1.1764 0l-18.33661 13.33571h37.84961z" fill="var(--icons-secondary, #333333)" fill-rule="evenodd"/></svg>