<svg id="btc-in" fill="none" viewBox="0 0 48 48" xmlns="http://www.w3.org/2000/svg"><path clip-rule="evenodd" d="m27 19h2v2h2v-2h2v2.126c1.7252.4441 3 2.0102 3 3.874 0 .9796-.3522 1.877-.9368 2.5725 1.1607.7001 1.9368 1.9732 1.9368 3.4275 0 2.2091-1.7909 4-4 4v2h-2v-2h-2v2h-2v-2h-2v-2h2v-10h-2v-2h2zm2 14h4c1.1046 0 2-.8954 2-2s-.8954-2-2-2h-1-3zm0-6h3c1.1046 0 2-.8954 2-2s-.8954-2-2-2h-3z" fill="var(--icons-secondary, #333333)" fill-rule="evenodd"/><path clip-rule="evenodd" d="m30 44c8.8366 0 16-7.1634 16-16s-7.1634-16-16-16-16 7.1634-16 16 7.1634 16 16 16zm0 2c9.9411 0 18-8.0589 18-18s-8.0589-18-18-18-18 8.0589-18 18 8.0589 18 18 18z" fill="var(--icons-secondary, #333333)" fill-rule="evenodd"/><path d="m4 8c0-1.10457.89543-2 2-2h20c1.1046 0 2 .89543 2 2v18c0 1.1046-.8954 2-2 2h-20c-1.10457 0-2-.8954-2-2z" fill="var(--icons-secondary, #333333)" opacity=".15"/><path d="m1 5c0-1.10457.89543-2 2-2h20c1.1046 0 2 .89543 2 2v18c0 1.1046-.8954 2-2 2h-20c-1.10457 0-2-.8954-2-2z" fill="var(--icons-bg-fill, #ffffff)"/><path d="m25 6h-19c-1.10457 0-2 .89543-2 2v17h21z" fill="var(--icons-primary, #0097db)" opacity=".2"/><g fill="var(--icons-primary, #0097db)"><path clip-rule="evenodd" d="m0 5c0-1.65686 1.34315-3 3-3h20c1.6569 0 3 1.34315 3 3v18c0 1.6569-1.3431 3-3 3h-20c-1.65686 0-3-1.3431-3-3zm3-1c-.55229 0-1 .44772-1 1v18c0 .5523.44772 1 1 1h20c.5523 0 1-.4477 1-1v-18c0-.55228-.4477-1-1-1z" fill-rule="evenodd"/><path d="m8 15c-.55228 0-1-.4477-1-1s.44772-1 1-1h10c.5523 0 1 .4477 1 1s-.4477 1-1 1z"/><path clip-rule="evenodd" d="m12.2929 19.7071c-.3905-.3905-.3905-1.0237 0-1.4142l4.2929-4.2929-4.2929-4.29289c-.3905-.39053-.3905-1.02369 0-1.41422.3905-.39052 1.0237-.39052 1.4142 0l5 5.00001c.3905.3905.3905 1.0237 0 1.4142l-5 5c-.3905.3905-1.0237.3905-1.4142 0z" fill-rule="evenodd"/></g></svg>