<svg id="cash-send" fill="none" viewBox="0 0 48 48" xmlns="http://www.w3.org/2000/svg"><path d="m7 9c0-1.10457.89543-2 2-2h30c1.1046 0 2 .89543 2 2v17c0 1.1046-.8954 2-2 2h-30c-1.10457 0-2-.8954-2-2z" fill="var(--icons-secondary, #333333)" opacity=".15"/><path d="m6 5c0-1.10457.89543-2 2-2h32c1.1046 0 2 .89543 2 2v16c0 1.1046-.8954 2-2 2h-32c-1.10457 0-2-.8954-2-2z" fill="var(--icons-bg-fill, #ffffff)"/><path d="m9 9c0-1.10457.89543-2 2-2h26c1.1046 0 2 .89543 2 2v14h-30z" fill="var(--icons-primary, #0097db)" opacity=".2"/><path clip-rule="evenodd" d="m5 5c0-1.65685 1.34315-3 3-3h32c1.6569 0 3 1.34315 3 3v16c0 1.6569-1.3431 3-3 3h-32c-1.65685 0-3-1.3431-3-3zm3-1c-.55228 0-1 .44772-1 1v16c0 .5523.44772 1 1 1h32c.5523 0 1-.4477 1-1v-16c0-.55228-.4477-1-1-1z" fill="var(--icons-primary, #0097db)" fill-rule="evenodd"/><path d="m29 13c0 2.7614-2.2386 5-5 5s-5-2.2386-5-5 2.2386-5 5-5 5 2.2386 5 5z" fill="var(--icons-bg-fill, #ffffff)"/><path clip-rule="evenodd" d="m24 16c1.6569 0 3-1.3431 3-3s-1.3431-3-3-3-3 1.3431-3 3 1.3431 3 3 3zm0 2c2.7614 0 5-2.2386 5-5s-2.2386-5-5-5-5 2.2386-5 5 2.2386 5 5 5z" fill="var(--icons-primary, #0097db)" fill-rule="evenodd"/><g fill="var(--icons-secondary, #333333)"><path d="m29 35c0-.5523.4477-1 1-1s1 .4477 1 1v10c0 .5523-.4477 1-1 1s-1-.4477-1-1z"/><path d="m23 31c0-.5523.4477-1 1-1s1 .4477 1 1v7c0 .5523-.4477 1-1 1s-1-.4477-1-1z"/><path d="m11 31c0-.5523.4477-1 1-1s1 .4477 1 1v4c0 .5523-.4477 1-1 1s-1-.4477-1-1z"/><path d="m35 31c0-.5523.4477-1 1-1s1 .4477 1 1v6c0 .5523-.4477 1-1 1s-1-.4477-1-1z"/><path d="m17 33c0-.5523.4477-1 1-1s1 .4477 1 1v9c0 .5523-.4477 1-1 1s-1-.4477-1-1z"/></g></svg>