<svg id="cash-deposits" fill="none" viewBox="0 0 48 48" xmlns="http://www.w3.org/2000/svg"><path clip-rule="evenodd" d="m10 23c0-1.6569 1.3431-3 3-3h32c1.6569 0 3 1.3431 3 3v16c0 1.6569-1.3431 3-3 3h-32c-1.6569 0-3-1.3431-3-3zm3-1c-.5523 0-1 .4477-1 1v16c0 .5523.4477 1 1 1h32c.5523 0 1-.4477 1-1v-16c0-.5523-.4477-1-1-1z" fill="var(--icons-secondary, #333333)" fill-rule="evenodd"/><path clip-rule="evenodd" d="m29 34c1.6569 0 3-1.3431 3-3s-1.3431-3-3-3-3 1.3431-3 3 1.3431 3 3 3zm0 2c2.7614 0 5-2.2386 5-5s-2.2386-5-5-5-5 2.2386-5 5 2.2386 5 5 5z" fill="var(--icons-secondary, #333333)" fill-rule="evenodd"/><path d="m10 18c0-1.1046.8954-2 2-2h28c1.1046 0 2 .8954 2 2v13c0 1.1046-.8954 2-2 2h-30z" fill="var(--icons-secondary, #333333)" opacity=".15"/><path d="m1 9c0-1.10457.89543-2 2-2h32c1.1046 0 2 .89543 2 2v16c0 1.1046-.8954 2-2 2h-32c-1.10457 0-2-.8954-2-2z" fill="var(--icons-bg-fill, #ffffff)"/><path d="m4 12c0-1.1046.89543-2 2-2h31v17h-33z" fill="var(--icons-primary, #0097db)" opacity=".2"/><path clip-rule="evenodd" d="m0 9c0-1.65685 1.34315-3 3-3h32c1.6569 0 3 1.34315 3 3v16c0 1.6569-1.3431 3-3 3h-32c-1.65685 0-3-1.3431-3-3zm3-1c-.55228 0-1 .44772-1 1v16c0 .5523.44772 1 1 1h32c.5523 0 1-.4477 1-1v-16c0-.55228-.4477-1-1-1z" fill="var(--icons-primary, #0097db)" fill-rule="evenodd"/><path d="m23 17c0 2.2091-1.7909 4-4 4s-4-1.7909-4-4 1.7909-4 4-4 4 1.7909 4 4z" fill="var(--icons-bg-fill, #ffffff)"/><path clip-rule="evenodd" d="m19 14c-1.6569 0-3 1.3431-3 3s1.3431 3 3 3 3-1.3431 3-3-1.3431-3-3-3zm-5 3c0-2.7614 2.2386-5 5-5s5 2.2386 5 5-2.2386 5-5 5-5-2.2386-5-5z" fill="var(--icons-primary, #0097db)" fill-rule="evenodd"/></svg>