<svg id="coin-buy" xmlns="http://www.w3.org/2000/svg" width="48" height="48" fill="none" viewBox="0 0 48 48"><path fill-rule="evenodd" d="M20 34c8.837 0 16-7.163 16-16S28.837 2 20 2 4 9.163 4 18s7.163 16 16 16zm0 2c9.941 0 18-8.059 18-18S29.941 0 20 0 2 8.059 2 18s8.059 18 18 18z" clip-rule="evenodd" fill="var(--icons-secondary, #454c59)"/><path fill="#EEE" d="M32 18c0 6.627-5.373 12-12 12S8 24.627 8 18 13.373 6 20 6s12 5.373 12 12z"/><path fill-rule="evenodd" d="M20 7C13.925 7 9 11.925 9 18s4.925 11 11 11 11-4.925 11-11S26.075 7 20 7zM7 18c0-7.18 5.82-13 13-13s13 5.82 13 13-5.82 13-13 13S7 25.18 7 18z" clip-rule="evenodd" fill="var(--icons-secondary, #454c59)"/><path d="M18 24a2 2 0 012-2h20a2 2 0 012 2v18a2 2 0 01-2 2H20a2 2 0 01-2-2V24z" opacity=".15" fill="var(--icons-secondary, #454c59)"/><path d="M21 27a2 2 0 012-2h20a2 2 0 012 2v18a2 2 0 01-2 2H23a2 2 0 01-2-2V27z" fill="var(--icons-bg-fill, #ffffff)"/><path d="M45 44H26a2 2 0 01-2-2V25h21v19z" opacity=".2" fill="var(--icons-primary, #0097db)"/><path fill-rule="evenodd" d="M20 27a3 3 0 013-3h20a3 3 0 013 3v18a3 3 0 01-3 3H23a3 3 0 01-3-3V27zm3-1a1 1 0 00-1 1v18a1 1 0 001 1h20a1 1 0 001-1V27a1 1 0 00-1-1H23z" clip-rule="evenodd" fill="var(--icons-primary, #0097db)"/><path d="M32 31a1 1 0 112 0v10a1 1 0 11-2 0V31z" fill="var(--icons-primary, #0097db)"/><path fill-rule="evenodd" d="M27.293 35.293a1 1 0 011.414 0L33 39.586l4.293-4.293a1 1 0 011.414 1.414l-5 5a1 1 0 01-1.414 0l-5-5a1 1 0 010-1.414z" clip-rule="evenodd" fill="var(--icons-primary, #0097db)"/></svg>