<svg id="coin-sell" xmlns="http://www.w3.org/2000/svg" width="48" height="48" fill="none" viewBox="0 0 48 48"><path fill-rule="evenodd" d="M20 46c8.837 0 16-7.163 16-16s-7.163-16-16-16S4 21.163 4 30s7.163 16 16 16zm0 2c9.941 0 18-8.059 18-18s-8.059-18-18-18S2 20.059 2 30s8.059 18 18 18z" clip-rule="evenodd" fill="var(--icons-secondary, #454c59)"/><path fill="#EEE" d="M32 30c0 6.627-5.373 12-12 12S8 36.627 8 30s5.373-12 12-12 12 5.373 12 12z"/><path fill-rule="evenodd" d="M20 19c-6.075 0-11 4.925-11 11s4.925 11 11 11 11-4.925 11-11-4.925-11-11-11zM7 30c0-7.18 5.82-13 13-13s13 5.82 13 13-5.82 13-13 13S7 37.18 7 30z" clip-rule="evenodd" fill="var(--icons-secondary, #454c59)"/><path d="M18 6a2 2 0 012-2h20a2 2 0 012 2v18a2 2 0 01-2 2H20a2 2 0 01-2-2V6z" opacity=".15" fill="var(--icons-secondary, #454c59)"/><path d="M21 3a2 2 0 012-2h20a2 2 0 012 2v18a2 2 0 01-2 2H23a2 2 0 01-2-2V3z" fill="var(--icons-bg-fill, #ffffff)"/><path d="M21 4h19a2 2 0 012 2v17H21V4z" opacity=".2" fill="var(--icons-primary, #0097db)"/><path fill-rule="evenodd" d="M20 3a3 3 0 013-3h20a3 3 0 013 3v18a3 3 0 01-3 3H23a3 3 0 01-3-3V3zm3-1a1 1 0 00-1 1v18a1 1 0 001 1h20a1 1 0 001-1V3a1 1 0 00-1-1H23z" clip-rule="evenodd" fill="var(--icons-primary, #0097db)"/><path d="M34 17a1 1 0 11-2 0V7a1 1 0 112 0v10z" fill="var(--icons-primary, #0097db)"/><path fill-rule="evenodd" d="M38.707 12.707a1 1 0 01-1.414 0L33 8.414l-4.293 4.293a1 1 0 01-1.414-1.414l5-5a1 1 0 011.414 0l5 5a1 1 0 010 1.414z" clip-rule="evenodd" fill="var(--icons-primary, #0097db)"/></svg>