<svg id="debitcredit-cards" fill="none" viewBox="0 0 48 48" xmlns="http://www.w3.org/2000/svg"><path clip-rule="evenodd" d="m10 21c0-1.6569 1.3431-3 3-3h32c1.6569 0 3 1.3431 3 3v18c0 1.6569-1.3431 3-3 3h-32c-1.6569 0-3-1.3431-3-3zm3-1c-.5523 0-1 .4477-1 1v18c0 .5523.4477 1 1 1h32c.5523 0 1-.4477 1-1v-18c0-.5523-.4477-1-1-1z" fill="var(--icons-secondary, #333333)" fill-rule="evenodd"/><path clip-rule="evenodd" d="m20 29.4649c-.5883.3403-1.2714.5351-2 .5351-2.2091 0-4-1.7909-4-4s1.7909-4 4-4c.7286 0 1.4117.1948 2 .5351.5883-.3403 1.2714-.5351 2-.5351 2.2091 0 4 1.7909 4 4s-1.7909 4-4 4c-.7286 0-1.4117-.1948-2-.5351z" fill="var(--icons-bg-fill, #ffffff)" fill-rule="evenodd"/><path clip-rule="evenodd" d="m20 27.1544 1.0015.5793c.2921.169.6309.2663.9985.2663 1.1046 0 2-.8954 2-2s-.8954-2-2-2c-.3676 0-.7064.0973-.9985.2663l-1.0015.5793-1.0015-.5793c-.2921-.169-.6309-.2663-.9985-.2663-1.1046 0-2 .8954-2 2s.8954 2 2 2c.3676 0 .7064-.0973.9985-.2663zm0-4.6193c-.5883-.3403-1.2714-.5351-2-.5351-2.2091 0-4 1.7909-4 4s1.7909 4 4 4c.7286 0 1.4117-.1948 2-.5351.5883.3403 1.2714.5351 2 .5351 2.2091 0 4-1.7909 4-4s-1.7909-4-4-4c-.7286 0-1.4117.1948-2 .5351z" fill="var(--icons-bg-fill, #ffffff)" fill-rule="evenodd"/><path d="m14 33c0-.5523.4477-1 1-1h20c.5523 0 1 .4477 1 1 0 .5523-.4477 1-1 1h-20c-.5523 0-1-.4477-1-1z" fill="var(--icons-secondary, #333333)"/><path d="m14 37c0-.5523.4477-1 1-1h6c.5523 0 1 .4477 1 1 0 .5523-.4477 1-1 1h-6c-.5523 0-1-.4477-1-1z" fill="var(--icons-secondary, #333333)"/><path d="m24 37c0-.5523.4477-1 1-1h6c.5523 0 1 .4477 1 1 0 .5523-.4477 1-1 1h-6c-.5523 0-1-.4477-1-1z" fill="var(--icons-secondary, #333333)"/><path d="m10 16c0-1.1046.8954-2 2-2h28c1.1046 0 2 .8954 2 2v16c0 1.1046-.8954 2-2 2h-30z" fill="var(--icons-secondary, #333333)" opacity=".15"/><path d="m1 9c0-1.10457.89543-2 2-2h32c1.1046 0 2 .89543 2 2v18c0 1.1046-.8954 2-2 2h-32c-1.10457 0-2-.8954-2-2z" fill="var(--icons-bg-fill, #ffffff)"/><path d="m4 12c0-1.1046.89543-2 2-2h31v19h-33z" fill="var(--icons-primary, #0097db)" opacity=".2"/><path clip-rule="evenodd" d="m0 9c0-1.65686 1.34315-3 3-3h32c1.6569 0 3 1.34315 3 3v18c0 1.6569-1.3431 3-3 3h-32c-1.65685 0-3-1.3431-3-3zm3-1c-.55229 0-1 .44772-1 1v18c0 .5523.44772 1 1 1h32c.5523 0 1-.4477 1-1v-18c0-.55228-.4477-1-1-1z" fill="var(--icons-primary, #0097db)" fill-rule="evenodd"/><path clip-rule="evenodd" d="m10 17.4649c-.58835.3403-1.27143.5351-2 .5351-2.20914 0-4-1.7909-4-4s1.79086-4 4-4c.72857 0 1.41165.1948 2 .5351.5883-.3403 1.2714-.5351 2-.5351 2.2091 0 4 1.7909 4 4s-1.7909 4-4 4c-.7286 0-1.4117-.1948-2-.5351z" fill="var(--icons-bg-fill, #ffffff)" fill-rule="evenodd"/><g fill="var(--icons-primary, #0097db)"><path clip-rule="evenodd" d="m10 15.1544 1.0015.5793c.2921.169.6309.2663.9985.2663 1.1046 0 2-.8954 2-2s-.8954-2-2-2c-.3676 0-.7064.0973-.9985.2663l-1.0015.5793-1.00145-.5793c-.29214-.169-.63094-.2663-.99855-.2663-1.10457 0-2 .8954-2 2s.89543 2 2 2c.36761 0 .70641-.0973.99855-.2663zm0-4.6193c-.58835-.3403-1.27143-.5351-2-.5351-2.20914 0-4 1.7909-4 4s1.79086 4 4 4c.72857 0 1.41165-.1948 2-.5351.5883.3403 1.2714.5351 2 .5351 2.2091 0 4-1.7909 4-4s-1.7909-4-4-4c-.7286 0-1.4117.1948-2 .5351z" fill-rule="evenodd"/><path d="m4 21c0-.5523.44772-1 1-1h20c.5523 0 1 .4477 1 1 0 .5523-.4477 1-1 1h-20c-.55228 0-1-.4477-1-1z"/><path d="m4 25c0-.5523.44772-1 1-1h6c.5523 0 1 .4477 1 1 0 .5523-.4477 1-1 1h-6c-.55228 0-1-.4477-1-1z"/><path d="m14 25c0-.5523.4477-1 1-1h6c.5523 0 1 .4477 1 1 0 .5523-.4477 1-1 1h-6c-.5523 0-1-.4477-1-1z"/></g></svg>