<svg id="digital-currencies" fill="none" viewBox="0 0 48 48" xmlns="http://www.w3.org/2000/svg"><path d="m16 19c0-1.1046.8954-2 2-2h18c1.1046 0 2 .8954 2 2v17c0 1.1046-.8954 2-2 2h-18c-1.1046 0-2-.8954-2-2z" fill="var(--icons-secondary, #333333)" opacity=".15"/><path d="m13 15c0-1.1046.8954-2 2-2h18c1.1046 0 2 .8954 2 2v18c0 1.1046-.8954 2-2 2h-18c-1.1046 0-2-.8954-2-2z" fill="var(--icons-bg-fill, #ffffff)"/><path d="m16 18c0-1.1046.8954-2 2-2h17v17c0 1.1046-.8954 2-2 2h-17z" fill="var(--icons-primary, #0097db)" opacity=".2"/><g fill="var(--icons-primary, #0097db)"><path clip-rule="evenodd" d="m18 21c0-1.6569 1.3431-3 3-3h6c.5523 0 1 .4477 1 1s-.4477 1-1 1h-6c-.5523 0-1 .4477-1 1v3c0 .5523-.4477 1-1 1s-1-.4477-1-1z" fill-rule="evenodd"/><path clip-rule="evenodd" d="m12 15c0-1.6569 1.3431-3 3-3h18c1.6569 0 3 1.3431 3 3v18c0 1.6569-1.3431 3-3 3h-18c-1.6569 0-3-1.3431-3-3zm3-1c-.5523 0-1 .4477-1 1v18c0 .5523.4477 1 1 1h18c.5523 0 1-.4477 1-1v-18c0-.5523-.4477-1-1-1z" fill-rule="evenodd"/><path d="m20 29c0-.5523.4477-1 1-1h6c.5523 0 1 .4477 1 1 0 .5523-.4477 1-1 1h-6c-.5523 0-1-.4477-1-1z"/></g><path clip-rule="evenodd" d="m20 2c.5523 0 1 .44772 1 1v2h2v-1c0-.55228.4477-1 1-1s1 .44772 1 1v1h2v-2c0-.55228.4477-1 1-1s1 .44772 1 1v2h2v-1c0-.55228.4477-1 1-1s1 .44772 1 1v1h2v-2c0-.55228.4477-1 1-1s1 .44772 1 1v2h3c1.6569 0 3 1.34315 3 3v3h2c.5523 0 1 .4477 1 1s-.4477 1-1 1h-2v2h1c.5523 0 1 .4477 1 1s-.4477 1-1 1h-1v2h2c.5523 0 1 .4477 1 1s-.4477 1-1 1h-2v2h1c.5523 0 1 .4477 1 1s-.4477 1-1 1h-1v2h2c.5523 0 1 .4477 1 1s-.4477 1-1 1h-2v2h1c.5523 0 1 .4477 1 1s-.4477 1-1 1h-1v2h2c.5523 0 1 .4477 1 1s-.4477 1-1 1h-2v3c0 1.6569-1.3431 3-3 3h-3v2c0 .5523-.4477 1-1 1s-1-.4477-1-1v-2h-2v1c0 .5523-.4477 1-1 1s-1-.4477-1-1v-1h-2v2c0 .5523-.4477 1-1 1s-1-.4477-1-1v-2h-2v1c0 .5523-.4477 1-1 1s-1-.4477-1-1v-1h-2v2c0 .5523-.4477 1-1 1s-1-.4477-1-1v-2h-2v1c0 .5523-.4477 1-1 1s-1-.4477-1-1v-1h-2v2c0 .5523-.4477 1-1 1s-1-.4477-1-1v-2h-3c-1.65685 0-3-1.3431-3-3v-3h-2c-.55228 0-1-.4477-1-1s.44772-1 1-1h2v-2h-1c-.55228 0-1-.4477-1-1s.44772-1 1-1h1v-2h-2c-.55228 0-1-.4477-1-1s.44772-1 1-1h2v-2h-1c-.55228 0-1-.4477-1-1s.44772-1 1-1h1v-2h-2c-.55228 0-1-.4477-1-1s.44772-1 1-1h2v-2h-1c-.55228 0-1-.4477-1-1s.44772-1 1-1h1v-2h-2c-.55228 0-1-.4477-1-1s.44772-1 1-1h2v-3c0-1.65685 1.34315-3 3-3h3v-2c0-.55228.4477-1 1-1s1 .44772 1 1v2h2v-1c0-.55228.4477-1 1-1s1 .44772 1 1v1h2v-2c0-.55228.4477-1 1-1zm-12 5c-.55228 0-1 .44772-1 1v32c0 .5523.44772 1 1 1h32c.5523 0 1-.4477 1-1v-32c0-.55228-.4477-1-1-1z" fill="var(--icons-secondary, #333333)" fill-rule="evenodd"/><path d="m29 22c.5523 0 1 .4477 1 1v2c0 .5523-.4477 1-1 1-.5523 0-1-.4477-1-1v-2c0-.5523.4477-1 1-1z" fill="var(--icons-primary, #0097db)"/></svg>