<svg id="gift-cards" fill="none" viewBox="0 0 48 48" xmlns="http://www.w3.org/2000/svg"><g fill="var(--icons-secondary, #333333)"><path clip-rule="evenodd" d="m10 9c0-1.65686 1.3431-3 3-3h32c1.6569 0 3 1.34315 3 3v18c0 1.6569-1.3431 3-3 3h-32c-1.6569 0-3-1.3431-3-3zm3-1c-.5523 0-1 .44772-1 1v18c0 .5523.4477 1 1 1h32c.5523 0 1-.4477 1-1v-18c0-.55228-.4477-1-1-1z" fill-rule="evenodd"/><path clip-rule="evenodd" d="m26 14c-.5523 0-1 .4477-1 1s.4477 1 1 1 1-.4477 1-1-.4477-1-1-1zm-3 1c0-1.6569 1.3431-3 3-3s3 1.3431 3 3-1.3431 3-3 3-3-1.3431-3-3z" fill-rule="evenodd"/><path clip-rule="evenodd" d="m34 20c-.5523 0-1 .4477-1 1s.4477 1 1 1 1-.4477 1-1-.4477-1-1-1zm-3 1c0-1.6569 1.3431-3 3-3s3 1.3431 3 3-1.3431 3-3 3-3-1.3431-3-3z" fill-rule="evenodd"/><path d="m32.7782 13.7071c.3905-.3905 1.0237-.3905 1.4142 0s.3905 1.0237 0 1.4142l-7.0711 7.0711c-.3905.3905-1.0237.3905-1.4142 0s-.3905-1.0237 0-1.4142z"/></g><path d="m11 14h28c1.1046 0 2 .8954 2 2v16c0 1.1046-.8954 2-2 2h-26c-1.1046 0-2-.8954-2-2z" fill="var(--icons-secondary, #333333)" opacity=".15"/><path d="m1 21c0-1.1046.89543-2 2-2h32c1.1046 0 2 .8954 2 2v18c0 1.1046-.8954 2-2 2h-32c-1.10457 0-2-.8954-2-2z" fill="var(--icons-bg-fill, #ffffff)"/><path d="m4 36c0 1.1046.89543 2 2 2h31v-19h-33z" fill="var(--icons-primary, #0097db)" opacity=".2"/><path clip-rule="evenodd" d="m0 21c0-1.6569 1.34315-3 3-3h32c1.6569 0 3 1.3431 3 3v18c0 1.6569-1.3431 3-3 3h-32c-1.65685 0-3-1.3431-3-3zm3-1c-.55229 0-1 .4477-1 1v18c0 .5523.44772 1 1 1h32c.5523 0 1-.4477 1-1v-18c0-.5523-.4477-1-1-1z" fill="var(--icons-primary, #0097db)" fill-rule="evenodd"/><path clip-rule="evenodd" d="m16 26c-.5523 0-1 .4477-1 1s.4477 1 1 1 1-.4477 1-1-.4477-1-1-1zm-3 1c0-1.6569 1.3431-3 3-3s3 1.3431 3 3-1.3431 3-3 3-3-1.3431-3-3z" fill="var(--icons-primary, #0097db)" fill-rule="evenodd"/><path clip-rule="evenodd" d="m24 32c-.5523 0-1 .4477-1 1s.4477 1 1 1 1-.4477 1-1-.4477-1-1-1zm-3 1c0-1.6569 1.3431-3 3-3s3 1.3431 3 3-1.3431 3-3 3-3-1.3431-3-3z" fill="var(--icons-primary, #0097db)" fill-rule="evenodd"/><path d="m22.7782 25.7071c.3905-.3905 1.0237-.3905 1.4142 0s.3905 1.0237 0 1.4142l-7.0711 7.0711c-.3905.3905-1.0237.3905-1.4142 0s-.3905-1.0237 0-1.4142z" fill="var(--icons-primary, #0097db)"/></svg>