<svg id="goods-and-services" fill="none" viewBox="0 0 48 48" xmlns="http://www.w3.org/2000/svg"><path d="m10 5 1-2h12.5.5 12.5l1.5 1v3l6.5 13-.5 1h-1-38.5l-1-1 6.5-13z" fill="var(--icons-bg-fill, #ffffff)"/><path clip-rule="evenodd" d="m6 20h36v24h4v2h-4-20-10-6-4v-2h4zm2 2h32v22h-18v-16h-10v16h-4zm12 8v14h-6v-14zm11-2c-2.7614 0-5 2.2386-5 5v1 1 1h10v-1-1-1c0-2.7614-2.2386-5-5-5zm3 6v-1c0-1.6569-1.3431-3-3-3s-3 1.3431-3 3v1z" fill="var(--icons-secondary, #333333)" fill-rule="evenodd"/><path d="m12 10h28l3.936 9.6214c.2691.6579-.2148 1.3786-.9256 1.3786h-35.32588c-.75906 0-1.24137-.8125-.8779-1.4789z" fill="var(--icons-primary, #0097db)" opacity=".2"/><path d="m6 22h36v2h-36z" fill="var(--icons-secondary, #333333)" opacity=".15"/><path clip-rule="evenodd" d="m9 5c0-1.65685 1.3431-3 3-3h24c1.6569 0 3 1.34315 3 3v1.76388l6.1708 12.34172c.6649 1.3298-.302 2.8944-1.7888 2.8944h-38.76394c-1.48676 0-2.45376-1.5646-1.78886-2.8944l6.1708-12.34162zm1.6181 3h26.7639l6 12h-38.76394l1-2h18.38194v-2h-17.38194zm26.3819-3v1h-26v-1c0-.55228.4477-1 1-1h24c.5523 0 1 .44772 1 1z" fill="var(--icons-primary, #0097db)" fill-rule="evenodd"/></svg>