<svg id="online-transfers" fill="none" viewBox="0 0 48 48" xmlns="http://www.w3.org/2000/svg"><g fill="var(--icons-secondary, #333333)"><path clip-rule="evenodd" d="m8 16c-1.65685 0-3 1.3431-3 3v1 2 21c0 1.6569 1.34315 3 3 3h30c1.6569 0 3-1.3431 3-3v-7h-2v7c0 .5523-.4477 1-1 1h-30c-.55228 0-1-.4477-1-1v-21h30 1c.5523 0 1 .4477 1 1v7h2v-7c0-1.6569-1.3431-3-3-3h-1v-1c0-1.6569-1.3431-3-3-3zm27 4v-1c0-.5523-.4477-1-1-1h-26c-.55228 0-1 .4477-1 1v1z" fill-rule="evenodd"/><path clip-rule="evenodd" d="m32 32c0-1.6569 1.3431-3 3-3h6c1.6569 0 3 1.3431 3 3v2c0 1.6569-1.3431 3-3 3h-6c-1.6569 0-3-1.3431-3-3zm3-1c-.5523 0-1 .4477-1 1v2c0 .5523.4477 1 1 1h6c.5523 0 1-.4477 1-1v-2c0-.5523-.4477-1-1-1z" fill-rule="evenodd"/><path d="m7 39c-.55228 0-1-.4477-1-1s.44772-1 1-1h11c.5523 0 1 .4477 1 1s-.4477 1-1 1z"/><path clip-rule="evenodd" d="m15 32c.3905.3905.3905 1.0236 0 1.4142l-1.2071 1.2071c-.5626.5626-1.3257.8787-2.1213.8787h-4.6716v-2h4.6716c.2652 0 .5195-.1054.7071-.2929l1.2071-1.2071c.3905-.3906 1.0237-.3906 1.4142 0z" fill-rule="evenodd"/><path clip-rule="evenodd" d="m20 37c-.5523 0-1 .4477-1 1s.4477 1 1 1 1-.4477 1-1-.4477-1-1-1zm-3 1c0-1.6569 1.3431-3 3-3s3 1.3431 3 3-1.3431 3-3 3-3-1.3431-3-3z" fill-rule="evenodd"/></g><path d="m18 8h-9c-1.10457 0-2 .89543-2 2v12h11z" fill="var(--icons-secondary, #333333)" opacity=".15"/><path clip-rule="evenodd" d="m34 20v-15c0-1.10457-.8954-2-2-2h-18c-1.1046 0-2 .89543-2 2v15z" fill="var(--icons-bg-fill, #ffffff)" fill-rule="evenodd"/><path clip-rule="evenodd" d="m31 20v-12c0-1.10457-.8954-2-2-2h-17v14z" fill="var(--icons-primary, #0097db)" fill-rule="evenodd" opacity=".2"/><path clip-rule="evenodd" d="m35 5c0-1.65685-1.3431-3-3-3h-18c-1.6569 0-3 1.34315-3 3v15h2v-15c0-.55229.4477-1 1-1h18c.5523 0 1 .44771 1 1v15h2z" fill="var(--icons-primary, #0097db)" fill-rule="evenodd"/><path d="m26 16c-.5523 0-1-.4477-1-1v-6c0-.55228.4477-1 1-1s1 .44772 1 1v6c0 .5523-.4477 1-1 1z" fill="var(--icons-primary, #0097db)"/><path d="m22 18c-.5523 0-1-.4477-1-1v-6c0-.5523.4477-1 1-1s1 .4477 1 1v6c0 .5523-.4477 1-1 1z" fill="var(--icons-primary, #0097db)"/></svg>