<svg id="rocket" fill="none" viewBox="0 0 48 48" xmlns="http://www.w3.org/2000/svg"><path clip-rule="evenodd" d="m11.2733 8.54483c1.0699-2.33191 4.3835-2.33191 5.4534 0l1.2712 2.77047c.6603 1.4392 1.0021 3.0039 1.0021 4.5873v12.0974l-10 12v-24.0974c0-1.5834.34183-3.1481 1.0021-4.5873z" fill="var(--icons-bg-fill, #ffffff)" fill-rule="evenodd"/><path d="m13 15.9899v19.5101l5-6.5v-7-8l-2.5-5.5-1.5183 3.169c-.6462 1.3488-.9817 2.8253-.9817 4.3209z" fill="var(--icons-primary, #0097db)" opacity=".2"/><path clip-rule="evenodd" d="m13.0911 9.37888c.3566-.77731 1.4612-.77731 1.8178 0l1.2712 2.77052c.5402 1.1774.8199 2.4577.8199 3.7532v.0974h-6v-.0974c0-1.2955.2797-2.5758.8199-3.7532zm-2.0911 8.62112v20l-2 2v-24.0974c0-1.5834.34183-3.1481 1.0021-4.5873l1.2712-2.77047c1.0699-2.33191 4.3835-2.33191 5.4534 0l1.2712 2.77047c.6603 1.4392 1.0021 3.0039 1.0021 4.5873v14.5974h-2v-12.5z" fill="var(--icons-primary, #0097db)" fill-rule="evenodd"/><path clip-rule="evenodd" d="m31.2733 8.54483c1.0699-2.33191 4.3835-2.33191 5.4534 0l1.2712 2.77047c.6603 1.4392 1.0021 3.0039 1.0021 4.5873v24.0974l-10-12v-12.0974c0-1.5834.3418-3.1481 1.0021-4.5873z" fill="var(--icons-bg-fill, #ffffff)" fill-rule="evenodd"/><path d="m35 15.9899v19.5101l-5-6.5v-7-8l2.5-5.5 1.5183 3.169c.6462 1.3488.9817 2.8253.9817 4.3209z" fill="var(--icons-primary, #0097db)" opacity=".2"/><g clip-rule="evenodd" fill-rule="evenodd"><path d="m33.0911 9.37888c.3566-.77731 1.4612-.77731 1.8178 0l1.2712 2.77052c.5402 1.1774.8199 2.4577.8199 3.7532v.0974h-6v-.0974c0-1.2955.2797-2.5758.8199-3.7532zm-2.0911 8.62112v12.5h-2v-14.5974c0-1.5834.3418-3.1481 1.0021-4.5873l1.2712-2.77047c1.0699-2.33191 4.3835-2.33191 5.4534 0l1.2712 2.77047c.6603 1.4392 1.0021 3.0039 1.0021 4.5873v24.0974l-2-2v-20z" fill="var(--icons-primary, #0097db)"/><path d="m25.7471 1.08128c-.7626-1.368788-2.7316-1.368794-3.4942 0l-3.8621 6.932c-.9121 1.63698-1.3908 3.47982-1.3908 5.35372v15.3043l-6.6533 9.0295-5.55311 2.5782c-2.9143 1.3531-1.94973 5.721 1.26334 5.721h12.94297v-3h10.0002v3h12.943c3.213 0 4.1776-4.3679 1.2633-5.721l-5.5531-2.5782-6.6533-9.0295v-15.3043c0-1.8739-.4787-3.71674-1.3908-5.35372zm-5.6092 7.9054 3.8621-6.93199 3.8621 6.932c.7462 1.33931 1.1379 2.84711 1.1379 4.38031v27.633h-10v-27.633c0-1.5332.3917-3.041 1.1379-4.38032zm-3.138 23.05632-5.3468 7.2563-6.01729 2.7937c-.97142.4511-.64992 1.907.42112 1.907h10.94297zm14.0002 0 5.3468 7.2563 6.0173 2.7937c.9714.4511.6499 1.907-.4211 1.907h-10.943z" fill="var(--icons-secondary, #333333)"/><path d="m24 13c-.5523 0-1 .4477-1 1h-2c0-1.6569 1.3431-3 3-3s3 1.3431 3 3h-2c0-.5523-.4477-1-1-1z" fill="var(--icons-secondary, #333333)"/></g><path d="m23 20c0-.5523.4477-1 1-1s1 .4477 1 1v13c0 .5523-.4477 1-1 1s-1-.4477-1-1z" fill="var(--icons-secondary, #333333)"/><path d="m22 38c1.8527 0 3.47 1.0077 4.3339 2.5048.4766-.3188 1.0496-.5048 1.6661-.5048.6753 0 1.2985.2231 1.7999.5997.5484-.7299 1.3407-1.2661 2.2559-1.4876.4363-3.4468 3.379-6.1121 6.9442-6.1121 3.5794 0 6.5313 2.6866 6.9493 6.1533 1.1916.3972 2.0507 1.5216 2.0507 2.8467v1c0 2.7614-2.2386 5-5 5h-38c-2.76142 0-5-2.2386-5-5v-1c0-1.3251.859093-2.4495 2.05069-2.8467.41797-3.4667 3.3699-6.1533 6.94931-6.1533 3.5652 0 6.5079 2.6653 6.9442 6.1121.7389.1788 1.3976.5627 1.9126 1.0881.8989-1.3276 2.4191-2.2002 4.1432-2.2002z" fill="var(--icons-bg-fill, #ffffff)"/><path d="m22 43c1.8527 0 3.4701 1.0077 4.3339 2.5048.4766-.3188 1.0496-.5048 1.6661-.5048.6753 0 1.2985.2231 1.7999.5997.5484-.7299 1.3407-1.2661 2.2559-1.4876.4363-3.4468 3.379-6.1121 6.9442-6.1121 3.5794 0 6.5313 2.6866 6.9493 6.1533 2.5507 2.8467-1.9493 1.5216-1.9493 2.8467h-40c0-1.3251-3.99999774 0-1.94931-2.8467.41798-3.4667 3.3699-6.1533 6.94932-6.1533 3.56519 0 6.50789 2.6653 6.94419 6.1121.7389.1788 1.3976.5627 1.9126 1.0881.8989-1.3276 2.4192-2.2002 4.1432-2.2002z" fill="var(--icons-primary, #0097db)" opacity=".2"/><path clip-rule="evenodd" d="m9 35c-2.76142 0-5 2.2386-5 5 0 .5523-.44772 1-1 1s-1 .4477-1 1v2c0 1.1046.89543 2 2 2h40c1.1046 0 2-.8954 2-2v-2c0-.5523-.4477-1-1-1s-1-.4477-1-1c0-2.7614-2.2386-5-5-5s-5 2.2386-5 5c0 .5523-.4477 1-1 1-1.1046 0-2 .8954-2 2 0 .5523-.4477 1-1 1s-1-.4477-1-1-.4477-1-1-1-1 .4477-1 1-.4477 1-1 1-1-.4477-1-1c0-1.6569-1.3431-3-3-3s-3 1.3431-3 3c0 .5523-.4477 1-1 1s-1-.4477-1-1c0-1.1046-.8954-2-2-2-.5523 0-1-.4477-1-1 0-2.7614-2.2386-5-5-5zm17.3339 5.5048c-.8639-1.4971-2.4812-2.5048-4.3339-2.5048-1.7241 0-3.2443.8726-4.1432 2.2002-.515-.5254-1.1737-.9093-1.9126-1.0881-.4363-3.4468-3.379-6.1121-6.9442-6.1121-3.57941 0-6.53134 2.6866-6.94931 6.1533-1.191597.3972-2.05069 1.5216-2.05069 2.8467v2c0 2.2091 1.79086 4 4 4h40c2.2091 0 4-1.7909 4-4v-2c0-1.3251-.8591-2.4495-2.0507-2.8467-.418-3.4667-3.3699-6.1533-6.9493-6.1533-3.5652 0-6.5079 2.6653-6.9442 6.1121-.9152.2215-1.7075.7577-2.2559 1.4876-.5014-.3766-1.1246-.5997-1.7999-.5997-.6165 0-1.1895.186-1.6661.5048z" fill="var(--icons-primary, #0097db)" fill-rule="evenodd"/></svg>