<svg id="shield" fill="none" viewBox="0 0 48 48" xmlns="http://www.w3.org/2000/svg"><path clip-rule="evenodd" d="m23.3286 43.0122 3.3729 2.8793c.7479.6385 1.8491.6385 2.597 0l16-13.6585c.4451-.38.7015-.9359.7015-1.5212v-20.95116c0-.97469-.7026-1.80743-1.6634-1.97147l-5.5611-.94945c.1439.27706.2245.59085.2245.92092v20.95116c0 .5853-.2564 1.1412-.7015 1.5212z" fill="var(--icons-secondary, #333333)" fill-rule="evenodd" opacity=".15"/><path clip-rule="evenodd" d="m21 1.98547 16.5049 2.81791c1.4412.24606 2.4951 1.49517 2.4951 2.95721v20.95121c0 .8779-.3845 1.7117-1.0522 2.2817l-16 13.6585c-1.1219.9578-2.7737.9578-3.8956 0l-15.99999-13.6585c-.66768-.57-1.05221-1.4038-1.05221-2.2817v-20.95121c0-1.46203 1.05393-2.71115 2.49511-2.95721zm0 2.02894-16.1683 2.76044c-.48039.08202-.8317.4984-.8317.98574v20.95121c0 .2926.12818.5706.35074.7605l15.99996 13.6586c.374.3192.9246.3192 1.2986 0l16-13.6586c.2225-.1899.3507-.4679.3507-.7605v-20.95121c0-.48734-.3513-.90372-.8317-.98574z" fill="var(--icons-secondary, #333333)" fill-rule="evenodd"/><path d="m9 12.7363c0-.9747.70262-1.8075 1.6634-1.9715l10.3366-1.7648 10.3366 1.7648c.9608.164 1.6634.9968 1.6634 1.9715v13.0975c0 .5852-.2564 1.1411-.7015 1.5211l-10 8.5366c-.7479.6385-1.8491.6385-2.597 0l-10.00002-8.5366c-.44513-.38-.70148-.9359-.70148-1.5211z" fill="var(--icons-bg-fill, #ffffff)"/><path d="m12 15.6634c0-.9421.6575-1.7564 1.5784-1.955l7.9216-1.7084 9.9249 2.1576c.9193.1998 1.5751 1.0135 1.5751 1.9543v8.9806c0 .5767-.249 1.1253-.683 1.5051l-10.0317 8.7777c-.7403.6478-1.8417.6611-2.5973.0313l-6.9684-5.8069c-.456-.38-.7196-.9429-.7196-1.5365z" fill="var(--icons-primary, #0097db)" opacity=".2"/><path clip-rule="evenodd" d="m21 7.98547 10.5049 1.79352c1.4412.24601 2.4951 1.49521 2.4951 2.95721v13.0975c0 .8779-.3845 1.7117-1.0522 2.2817l-10 8.5366c-1.1219.9578-2.7737.9578-3.8956 0l-9.99999-8.5366c-.66768-.5699-1.05221-1.4038-1.05221-2.2817v-13.0975c0-1.462 1.05393-2.7112 2.4951-2.95721zm0 2.02893-10.1683 1.7361c-.4804.082-.8317.4984-.8317.9857v13.0975c0 .2927.1282.5706.3507.7606l10 8.5366c.374.3192.9246.3192 1.2986 0l10-8.5366c.2225-.19.3507-.4679.3507-.7606v-13.0975c0-.4873-.3513-.9037-.8317-.9857z" fill="var(--icons-primary, #0097db)" fill-rule="evenodd"/><path d="m24 21c0 1.6569-1.3431 3-3 3s-3-1.3431-3-3 1.3431-3 3-3 3 1.3431 3 3z" fill="var(--icons-bg-fill, #ffffff)"/><path clip-rule="evenodd" d="m21 19c-1.1046 0-2 .8954-2 2s.8954 2 2 2 2-.8954 2-2-.8954-2-2-2zm-4 2c0-2.2091 1.7909-4 4-4s4 1.7909 4 4-1.7909 4-4 4-4-1.7909-4-4z" fill="var(--icons-primary, #0097db)" fill-rule="evenodd"/></svg>