<svg id="thumb" fill="none" viewBox="0 0 48 48" xmlns="http://www.w3.org/2000/svg" xmlns:xlink="http://www.w3.org/1999/xlink"><clipPath id="a"><path d="m0 0h48v48h-48z"/></clipPath><g clip-path="url(#a)"><path d="m29.3762 16.2047c1.4628-1.4932 3.9469-.0246 3.3437 1.9767l-2.3567 7.8187h9.4847c2.8017 0 4.7353 2.8058 3.7379 5.4239l-4.3261 11.356c-.7385 1.9388-2.5977 3.2201-4.6724 3.2201h-10.3863c-2.7614 0-5-2.2386-5-5v-12.3673c0-1.3082.5128-2.5643 1.4283-3.4989z" fill="var(--icons-bg-fill, #ffffff)"/><path clip-rule="evenodd" d="m29.3762 16.2047c1.4628-1.4932 3.9469-.0246 3.3437 1.9767l-2.3567 7.8187h9.4847c2.8017 0 4.7353 2.8058 3.7379 5.4239l-4.3261 11.356c-.7385 1.9388-2.5977 3.2201-4.6724 3.2201h-10.3863c-2.7614 0-5-2.2386-5-5v-12.3673c0-1.3082.5128-2.5643 1.4283-3.4989zm1.4288 1.3996-8.747 8.9292c-.5493.5607-.857 1.3144-.857 2.0993v12.3673c0 1.6568 1.3432 3 3 3h10.3863c1.2448 0 2.3603-.7688 2.8035-1.9321l4.3261-11.356c.4986-1.309-.4682-2.7119-1.869-2.7119h-10.8305c-.3164 0-.614-.1497-.8027-.4036s-.2461-.5822-.1548-.885z" fill="var(--icons-primary, #0097db)" fill-rule="evenodd"/><path d="m29.5629 20.0275-8.1593 8.6915c-.7664.8163-1.1555 1.9166-1.0728 3.0332l.5958 8.0433c.1547 2.0888 1.8946 3.7045 3.9891 3.7045h10.0957c1.6264 0 3.0908-.9847 3.7044-2.4908l2.8019-6.8773c.8038-1.9731-.6477-4.1319-2.7783-4.1319h-10.0894l2.6027-9.0105c.2915-1.0091-.9709-1.7278-1.6898-.962z" fill="var(--icons-primary, #0097db)" opacity=".2"/><g fill="var(--icons-secondary, #333333)"><path clip-rule="evenodd" d="m12.201 28h-2.99995v-2h2.99995c1.6569 0 3 1.3431 3 3v14c0 1.6569-1.3431 3-3 3h-7.99995v-2h7.99995c.5523 0 1-.4477 1-1v-14c0-.5523-.4477-1-1-1z" fill-rule="evenodd"/><path d="m14.167 19.5711c-.5335-.143-.8501-.6913-.7071-1.2248.1429-.5334.6912-.85 1.2247-.7071l1.9319.5177c.5334.1429.85.6912.7071 1.2247-.143.5335-.6913.8501-1.2248.7071z"/><path d="m17.9711 11.1843c-.3905-.3905-.3905-1.0237 0-1.41423s1.0237-.39053 1.4142 0l3.1797 3.17973c.3905.3905.3905 1.0237 0 1.4142s-1.0237.3905-1.4142 0z"/><path d="m42.512 20.3468c.5477-.071.9341-.5725.8631-1.1202-.0709-.5478-.5725-.9342-1.1202-.8632l-1.9834.257c-.5477.071-.9342.5725-.8632 1.1202s.5725.9342 1.1202.8632z"/><path d="m35.8822 4.49943c.1815-.52163-.0943-1.09158-.6159-1.27301-.5217-.18143-1.0916.09435-1.2731.61599l-1.971 5.66699c-.1815.5216.0943 1.0916.616 1.273.5216.1814 1.0915-.0943 1.273-.616z"/><path d="m41.5592 13.2278c.5133-.2038.7643-.7851.5606-1.2984-.2038-.5133-.7851-.7643-1.2984-.5606l-3.6909 1.4649c-.5133.2037-.7643.785-.5606 1.2984.2038.5133.7851.7643 1.2984.5605z"/><path d="m24.5127 3.45616c-.1429-.53347.1737-1.0818.7071-1.22474.5335-.14295 1.0818.17364 1.2248.7071l1.7891 6.67709c.1429.53349-.1736 1.08179-.7071 1.22479-.5335.1429-1.0818-.1737-1.2248-.7072z"/></g></g></svg>