<svg id="user-many" fill="none" viewBox="0 0 48 48" xmlns="http://www.w3.org/2000/svg"><g clip-rule="evenodd" fill-rule="evenodd"><path d="m37 8c-.5523 0-1 .44772-1 1s.4477 1 1 1 1-.44772 1-1-.4477-1-1-1zm-3 1c0-1.65685 1.3431-3 3-3s3 1.34315 3 3c0 1.6569-1.3431 3-3 3s-3-1.3431-3-3z" fill="var(--icons-secondary, #333333)"/><path d="m30 11c0-3.86599 3.134-7 7-7s7 3.13401 7 7c0 2.1395-.9598 4.0548-2.4723 5.3388-.8392-1.4589-2.6764-2.3388-4.5277-2.3388s-3.6885.8799-4.5277 2.3388c-1.5125-1.284-2.4723-3.1993-2.4723-5.3388zm4.1852 6.4111c.8614.3787 1.8135.5889 2.8148.5889s1.9534-.2102 2.8148-.5889c-.3869-.7385-1.3667-1.4111-2.8148-1.4111s-2.4279.6726-2.8148 1.4111zm2.8148-15.4111c-4.9706 0-9 4.02944-9 9 0 4.9706 4.0294 9 9 9s9-4.0294 9-9c0-4.97056-4.0294-9-9-9z" fill="var(--icons-secondary, #333333)"/><path d="m11 34c-.5523 0-1 .4477-1 1s.4477 1 1 1 1-.4477 1-1-.4477-1-1-1zm-3 1c0-1.6569 1.34315-3 3-3 1.6569 0 3 1.3431 3 3s-1.3431 3-3 3c-1.65685 0-3-1.3431-3-3z" fill="var(--icons-secondary, #333333)"/><path d="m4 37c0-3.866 3.13401-7 7-7 3.866 0 7 3.134 7 7 0 2.1395-.9598 4.0548-2.4723 5.3388-.8392-1.4589-2.6764-2.3388-4.5277-2.3388s-3.68851.8799-4.52766 2.3388c-1.51252-1.284-2.47234-3.1993-2.47234-5.3388zm4.18521 6.4111c.86135.3787 1.81352.5889 2.81479.5889 1.0013 0 1.9534-.2102 2.8148-.5889-.3869-.7385-1.3667-1.4111-2.8148-1.4111-1.44806 0-2.42789.6726-2.81479 1.4111zm2.81479-15.4111c-4.97056 0-9 4.0294-9 9s4.02944 9 9 9c4.9706 0 9-4.0294 9-9s-4.0294-9-9-9z" fill="var(--icons-secondary, #333333)"/></g><path d="m39 29c0 8.2843-6.7157 15-15 15s-15-6.7157-15-15 6.7157-15 15-15 15 6.7157 15 15z" fill="var(--icons-secondary, #333333)" opacity=".15"/><path d="m39 24c0 8.2843-6.7157 15-15 15s-15-6.7157-15-15 6.7157-15 15-15 15 6.7157 15 15z" fill="var(--icons-bg-fill, #ffffff)"/><path d="m39 25.5c0 7.4558-6.7157 13.5-15 13.5s-15-6.0442-15-13.5 6.7157-13.5 15-13.5 15 6.0442 15 13.5z" fill="var(--icons-primary, #0097db)" opacity=".2"/><path d="m24 29c-4.9706 0-9 3.134-9 7 3 2.3333 10.8 5.6 18 0 0-3.866-4.0294-7-9-7z" fill="var(--icons-bg-fill, #ffffff)"/><path clip-rule="evenodd" d="m24 30c-4.6667 0-8 2.9056-8 6h-2c0-4.6376 4.7256-8 10-8s10 3.3624 10 8h-2c0-3.0944-3.3333-6-8-6z" fill="var(--icons-primary, #0097db)" fill-rule="evenodd"/><path clip-rule="evenodd" d="m24 10c-7.732 0-14 6.268-14 14s6.268 14 14 14 14-6.268 14-14-6.268-14-14-14zm-16 14c0-8.8366 7.1634-16 16-16s16 7.1634 16 16-7.1634 16-16 16-16-7.1634-16-16z" fill="var(--icons-primary, #0097db)" fill-rule="evenodd"/><path d="m29 20c0 2.7614-2.2386 5-5 5s-5-2.2386-5-5 2.2386-5 5-5 5 2.2386 5 5z" fill="var(--icons-bg-fill, #ffffff)"/><path clip-rule="evenodd" d="m24 16c-2.2091 0-4 1.7909-4 4s1.7909 4 4 4 4-1.7909 4-4-1.7909-4-4-4zm-6 4c0-3.3137 2.6863-6 6-6s6 2.6863 6 6-2.6863 6-6 6-6-2.6863-6-6z" fill="var(--icons-primary, #0097db)" fill-rule="evenodd"/></svg>