<svg id="wallet-btc" fill="none" viewBox="0 0 48 48" xmlns="http://www.w3.org/2000/svg"><path clip-rule="evenodd" d="m30 4c-1.6569 0-3 1.34315-3 3s1.3431 3 3 3 3-1.34315 3-3-1.3431-3-3-3zm-5 3c0-2.76142 2.2386-5 5-5s5 2.23858 5 5-2.2386 5-5 5-5-2.23858-5-5z" fill="var(--icons-secondary, #333333)" fill-rule="evenodd"/><path clip-rule="evenodd" d="m8 16c-1.65685 0-3 1.3431-3 3v1 2 21c0 1.6569 1.34315 3 3 3h30c1.6569 0 3-1.3431 3-3v-20c0-1.6569-1.3431-3-3-3h-1v-1c0-1.6569-1.3431-3-3-3zm27 4v-1c0-.5523-.4477-1-1-1h-26c-.55228 0-1 .4477-1 1v1zm-28 2v21c0 .5523.44772 1 1 1h30c.5523 0 1-.4477 1-1v-20c0-.5523-.4477-1-1-1h-1z" fill="var(--icons-secondary, #333333)" fill-rule="evenodd"/><path d="m33 32c0-1.1046.8954-2 2-2h6c1.1046 0 2 .8954 2 2v2c0 1.1046-.8954 2-2 2h-6c-1.1046 0-2-.8954-2-2z" fill="var(--icons-bg-fill, #ffffff)"/><path clip-rule="evenodd" d="m32 32c0-1.6569 1.3431-3 3-3h6c1.6569 0 3 1.3431 3 3v2c0 1.6569-1.3431 3-3 3h-6c-1.6569 0-3-1.3431-3-3zm3-1c-.5523 0-1 .4477-1 1v2c0 .5523.4477 1 1 1h6c.5523 0 1-.4477 1-1v-2c0-.5523-.4477-1-1-1z" fill="var(--icons-secondary, #333333)" fill-rule="evenodd"/><path d="m32 21c0 6.0751-4.9249 11-11 11s-11-4.9249-11-11 4.9249-11 11-11 11 4.9249 11 11z" fill="var(--icons-secondary, #333333)" opacity=".15"/><path d="m32 16c0 6.0751-4.9249 11-11 11s-11-4.9249-11-11c0-6.07513 4.9249-11 11-11s11 4.92487 11 11z" fill="var(--icons-bg-fill, #ffffff)"/><path clip-rule="evenodd" d="m21 6c-5.5228 0-10 4.4772-10 10s4.4772 10 10 10 10-4.4772 10-10-4.4772-10-10-10zm-12 10c0-6.62742 5.3726-12 12-12s12 5.37258 12 12c0 6.6274-5.3726 12-12 12s-12-5.3726-12-12z" fill="var(--icons-primary, #0097db)" fill-rule="evenodd"/><path d="m32 17.4286c0 5.2072-4.9249 9.4285-11 9.4285s-11-4.2213-11-9.4285c0-5.2073 4.9249-9.4286 11-9.4286s11 4.2213 11 9.4286z" fill="var(--icons-primary, #0097db)" opacity=".2"/><path clip-rule="evenodd" d="m18.4142 18.6061v-6.4849h-1.4142v-2h1.4142v-1.1212h1.4141v1.1212h1.4141v-1.1212h1.4142v1.2016c1.3832.3204 2.4141 1.5602 2.4141 3.0408 0 .6483-.1976 1.2504-.5359 1.7494.755.5697 1.243 1.4744 1.243 2.4931 0 1.7238-1.3974 3.1212-3.1212 3.1212v1.1212h-1.4142v-1.1212h-1.4141v1.1212h-1.4141v-1.1212h-1.4142v-2zm1.4141 0h2.8283c.6192 0 1.1212-.502 1.1212-1.1212 0-.6193-.502-1.1213-1.1212-1.1213h-2.8283zm0-4.2425v-2.2424h2.1212c.6192 0 1.1212.502 1.1212 1.1212 0 .6193-.502 1.1212-1.1212 1.1212z" fill="var(--icons-primary, #0097db)" fill-rule="evenodd"/><path d="m10 26c0-.5523.4477-1 1-1s1 .4477 1 1v11c0 .5523-.4477 1-1 1s-1-.4477-1-1z" fill="var(--icons-secondary, #333333)"/></svg>