<svg id="bitcoin" enable-background="new 0 0 48 48" viewBox="0 0 48 48" xmlns="http://www.w3.org/2000/svg"><path d="m29.3 2.7c-11.8-3-23.7 4.3-26.6 16-2.9 11.8 4.2 23.7 16 26.7s23.7-4.2 26.7-16c2.9-11.8-4.3-23.7-16.1-26.7zm6.1 17.6c-.3 2.5-1.7 3.8-3.6 4.2 2.6 1.3 3.9 3.3 2.6 6.9-1.5 4.4-5.2 4.7-10 3.9l-1.3 4.7-2.8-.9 1.2-4.6c-.8-.2-1.5-.4-2.3-.5l-1.2 4.6-2.8-.8 1.2-4.7c-.6-.2-1.3-.3-2-.5l-3.6-1 1.4-3.2 2 .5c.8.2 1.2-.3 1.3-.6l3.1-12.7c0-.6-.2-1.4-1.3-1.6l-2-.5.8-3 3.9 1c.5.1 1.2.3 1.8.4l1.2-4.6 2.7.7-1.2 4.5c.8.2 1.5.3 2.3.5l1.1-4.5 2.8.8-1.2 4.6c3.7 1.2 6.4 3 5.9 6.4z" fill="#fc932b"/><path d="m35.4 20.3c-.3 2.5-1.7 3.8-3.6 4.2 2.6 1.3 3.9 3.3 2.6 6.9-1.5 4.4-5.2 4.7-10 3.9l-1.3 4.7-2.8-.9 1.2-4.6c-.8-.2-1.5-.4-2.3-.5l-1.2 4.6-2.8-.8 1.2-4.7c-.6-.2-1.3-.3-2-.5l-3.6-1 1.4-3.2 2 .5c.8.2 1.2-.3 1.3-.6l3.1-12.7c0-.6-.2-1.4-1.3-1.6l-2-.5.8-3 3.9 1c.5.1 1.2.3 1.8.4l1.2-4.6 2.7.7-1.2 4.5c.8.2 1.5.3 2.3.5l1.1-4.5 2.8.8-1.2 4.6c3.7 1.2 6.4 3 5.9 6.4z" fill="#fff"/><g fill="#fc932b"><path d="m21.7 24.8-1.5 6.2c1.9.4 7.8 2.4 8.7-1.2s-5.2-4.5-7.2-5z"/><path d="m23.9 16.3-1.4 5.7c1.6.4 6.5 2 7.3-1.2.7-3.3-4.3-4-5.9-4.5z"/></g></svg>