<svg id="tether" fill="none" viewBox="0 0 48 48" xmlns="http://www.w3.org/2000/svg"><path d="m24 2c12.1497 0 22 9.8503 22 22s-9.8507 22-22 22-22-9.8476-22-22 9.849-22 22-22z" fill="#53ae94"/><path d="m26.7152 21.0686v-3.2728h7.484v-4.9865h-20.379v4.9865h7.4848v3.2701c-6.083.2794-10.6568 1.4841-10.6568 2.9273s4.576 2.648 10.6568 2.9291v10.483h5.412v-10.4839c6.072-.2802 10.6366-1.4841 10.6366-2.926 0-1.4418-4.5646-2.6457-10.6366-2.926zm.0018 4.9649v-.0026c-.1527.0097-.9372.0567-2.684.0567-1.3966 0-2.3791-.0396-2.7254-.0576v.0044c-5.3741-.238-9.3856-1.1739-9.3856-2.2937s4.0119-2.0544 9.3856-2.2929v3.6542c.352.0242 1.3588.0836 2.7483.0836 1.6689 0 2.508-.0695 2.662-.0836v-3.6542c5.3636.239 9.3658 1.1757 9.3658 2.2916 0 1.1158-4.004 2.053-9.3658 2.2919" fill="#ffffff"/></svg>