<svg id="thumb" fill="none" height="64" viewBox="0 0 64 64" width="64" xmlns="http://www.w3.org/2000/svg"><path clip-rule="evenodd" d="m38.9609 22.0836c1.4849-1.4581 3.932.0392 3.3097 2.0251l-3.7868 12.0848h15.1013c2.8241 0 4.7589 2.8473 3.719 5.4729l-6.8021 17.1747c-.7551 1.9066-2.5979 3.1589-4.6487 3.1589h-16.8533c-2.7614 0-5-2.2386-5-5v-18.1282c0-1.3419.5394-2.6275 1.4969-3.5677z" fill="var(--icons-bg-fill, #ffffff)" fill-rule="evenodd"/><path clip-rule="evenodd" d="m38.9609 22.0836c1.4849-1.4581 3.932.0392 3.3097 2.0251l-3.7868 12.0848h15.1013c2.8241 0 4.7589 2.8473 3.719 5.4729l-6.8021 17.1747c-.7551 1.9066-2.5979 3.1589-4.6487 3.1589h-16.8533c-2.7614 0-5-2.2386-5-5v-18.1282c0-1.3419.5394-2.6275 1.4969-3.5677zm1.4012 1.4271-13.464 13.2205c-.5745.5641-.8981 1.3354-.8981 2.1406v18.1282c0 1.6568 1.3431 3 3 3h16.8533c1.2305 0 2.3362-.7514 2.7893-1.8954l6.802-17.1746c.5199-1.3129-.4475-2.7365-1.8595-2.7365h-16.4627c-.3182 0-.6175-.1515-.8059-.408s-.2435-.5873-.1483-.891z" fill="var(--icons-primary, #0097db)" fill-rule="evenodd"/><path d="m37.2395 30.7605-8.0679 8.068c-.7502.7501-1.1716 1.7675-1.1716 2.8284v12.3431c0 2.2092 1.7909 4 4 4h14.9181c1.616 0 3.0732-.9722 3.6935-2.4643l4.6624-11.2141c.8214-1.9758-.6304-4.1517-2.7702-4.1517h-15.116l1.5428-8.5242c.1746-.9643-.9981-1.5781-1.6911-.8852z" fill="var(--icons-primary, #0097db)" opacity=".2"/><g fill="var(--icons-secondary, #333333)"><path clip-rule="evenodd" d="m17 38h-5v-2h5c1.6569 0 3 1.3431 3 3v20c0 1.6569-1.3431 3-3 3h-12v-2h12c.5523 0 1-.4477 1-1v-20c0-.5523-.4477-1-1-1z" fill-rule="evenodd"/><path d="m17.9659 25.2058c-.5334-.1429-.85-.6912-.7071-1.2247.143-.5335.6913-.8501 1.2248-.7071l3.2197.8627c.5335.143.8501.6913.7071 1.2248-.1429.5334-.6913.85-1.2247.7071z"/><path d="m23.1246 13.8741c-.3905-.3905-.3905-1.0237 0-1.4142s1.0237-.3905 1.4142 0l4.711 4.711c.3905.3905.3905 1.0237 0 1.4142s-1.0237.3905-1.4142 0z"/><path d="m56.4121 26.2835c.5477-.0709.9342-.5725.8632-1.1202s-.5725-.9341-1.1202-.8632l-3.3057.4284c-.5477.071-.9342.5725-.8632 1.1202s.5725.9342 1.1202.8632z"/><path d="m47.3512 4.88176c.1814-.52164-.0944-1.09158-.616-1.27302-.5216-.18143-1.0916.09436-1.273.61599l-2.8471 8.18567c-.1815.5216.0943 1.0916.6159 1.273.5217.1814 1.0916-.0943 1.2731-.616z"/><path d="m55.1208 16.7117c.5134-.2038.7643-.7851.5606-1.2984s-.785-.7643-1.2984-.5606l-5.5408 2.1991c-.5133.2037-.7643.785-.5606 1.2984.2038.5133.7851.7643 1.2984.5605z"/><path d="m31.9959 3.4835c-.143-.53346.1736-1.0818.7071-1.22474s1.0818.17364 1.2247.70711l2.5581 9.54673c.1429.5335-.1737 1.0818-.7071 1.2247-.5335.143-1.0818-.1736-1.2248-.7071z"/></g></svg>