<svg id="user-many" fill="none" height="64" viewBox="0 0 64 64" width="64" xmlns="http://www.w3.org/2000/svg"><path d="m52.75 11.25c0 1.5188-1.2312 2.75-2.75 2.75s-2.75-1.2312-2.75-2.75c0-1.51878 1.2312-2.75 2.75-2.75s2.75 1.23122 2.75 2.75z" fill="var(--icons-bg-fill, #ffffff)"/><path clip-rule="evenodd" d="m50 9.5c-.9665 0-1.75.7835-1.75 1.75s.7835 1.75 1.75 1.75 1.75-.7835 1.75-1.75-.7835-1.75-1.75-1.75zm-3.75 1.75c0-2.07107 1.6789-3.75 3.75-3.75s3.75 1.67893 3.75 3.75c0 2.0711-1.6789 3.75-3.75 3.75s-3.75-1.6789-3.75-3.75z" fill="var(--icons-secondary, #333333)" fill-rule="evenodd"/><path clip-rule="evenodd" d="m40 14c0-5.52285 4.4772-10 10-10s10 4.47715 10 10c0 3.2264-1.5279 6.0958-3.8996 7.9244-.9516-2.0953-3.4693-3.4244-6.1004-3.4244s-5.1488 1.3291-6.1004 3.4244c-2.3717-1.8286-3.8996-4.6981-3.8996-7.9244zm5.6371 9.0006c1.3184.6403 2.7987.9994 4.3629.9994s3.0445-.3591 4.3629-.9994c-.4638-1.3184-2.0744-2.5006-4.3629-2.5006s-3.8991 1.1822-4.3629 2.5006zm4.3629-21.0006c-6.6274 0-12 5.37258-12 12 0 6.6274 5.3726 12 12 12s12-5.3726 12-12c0-6.62742-5.3726-12-12-12z" fill="var(--icons-secondary, #333333)" fill-rule="evenodd"/><path d="m16.75 47.25c0 1.5188-1.2312 2.75-2.75 2.75s-2.75-1.2312-2.75-2.75 1.2312-2.75 2.75-2.75 2.75 1.2312 2.75 2.75z" fill="var(--icons-bg-fill, #ffffff)"/><path clip-rule="evenodd" d="m14 45.5c-.9665 0-1.75.7835-1.75 1.75s.7835 1.75 1.75 1.75 1.75-.7835 1.75-1.75-.7835-1.75-1.75-1.75zm-3.75 1.75c0-2.0711 1.6789-3.75 3.75-3.75s3.75 1.6789 3.75 3.75-1.6789 3.75-3.75 3.75-3.75-1.6789-3.75-3.75z" fill="var(--icons-secondary, #333333)" fill-rule="evenodd"/><path clip-rule="evenodd" d="m4 50c0-5.5228 4.47715-10 10-10 5.5228 0 10 4.4772 10 10 0 3.2263-1.5279 6.0958-3.8996 7.9244-.9516-2.0953-3.4693-3.4244-6.1004-3.4244s-5.14882 1.3291-6.10037 3.4244c-2.37172-1.8286-3.89963-4.6981-3.89963-7.9244zm5.63708 9.0006c1.31842.6403 2.79872.9994 4.36292.9994s3.0445-.3591 4.3629-.9994c-.4638-1.3184-2.0744-2.5006-4.3629-2.5006s-3.8991 1.1822-4.36292 2.5006zm4.36292-21.0006c-6.62742 0-12 5.3726-12 12s5.37258 12 12 12c6.6274 0 12-5.3726 12-12s-5.3726-12-12-12z" fill="var(--icons-secondary, #333333)" fill-rule="evenodd"/><path d="m52 37c0 11.0457-8.9543 20-20 20s-20-8.9543-20-20 8.9543-20 20-20 20 8.9543 20 20z" fill="var(--icons-secondary, #333333)" opacity=".15"/><path d="m52 32c0 11.0457-8.9543 20-20 20s-20-8.9543-20-20 8.9543-20 20-20 20 8.9543 20 20z" fill="var(--icons-bg-fill, #ffffff)"/><path d="m52 33c0 9.9411-8.9543 18-20 18s-20-8.0589-20-18 8.9543-18 20-18 20 8.0589 20 18z" fill="var(--icons-primary, #0097db)" opacity=".2"/><path d="m32 38.6667c-6.6274 0-12 4.3476-12 9.7107 4 3.2368 14.4 7.7685 24 0 0-5.3631-5.3726-9.7107-12-9.7107z" fill="var(--icons-bg-fill, #ffffff)"/><path clip-rule="evenodd" d="m32 39.6667c-6.2833 0-11 4.0873-11 8.7107h-2c0-6.1027 6.0284-10.7107 13-10.7107s13 4.608 13 10.7107h-2c0-4.6234-4.7167-8.7107-11-8.7107z" fill="var(--icons-primary, #0097db)" fill-rule="evenodd"/><path clip-rule="evenodd" d="m32 13c-10.4934 0-19 8.5066-19 19s8.5066 19 19 19 19-8.5066 19-19-8.5066-19-19-19zm-21 19c0-11.598 9.402-21 21-21s21 9.402 21 21-9.402 21-21 21-21-9.402-21-21z" fill="var(--icons-primary, #0097db)" fill-rule="evenodd"/><path d="m39.0001 27c0 3.866-3.134 7-7 7s-7-3.134-7-7 3.134-7 7-7 7 3.134 7 7z" fill="var(--icons-bg-fill, #ffffff)"/><path clip-rule="evenodd" d="m32.0001 21c-3.3137 0-6 2.6863-6 6s2.6863 6 6 6 6-2.6863 6-6-2.6863-6-6-6zm-8 6c0-4.4183 3.5817-8 8-8s8 3.5817 8 8-3.5817 8-8 8-8-3.5817-8-8z" fill="var(--icons-primary, #0097db)" fill-rule="evenodd"/></svg>