<svg id="warning-id" fill="none" height="64" viewBox="0 0 64 64" width="64" xmlns="http://www.w3.org/2000/svg"><g fill="var(--icons-secondary, #333333)"><path clip-rule="evenodd" d="m0 26c0-1.6569 1.34315-3 3-3h50c1.6569 0 3 1.3431 3 3v28c0 1.6569-1.3431 3-3 3h-50c-1.65686 0-3-1.3431-3-3zm3-1c-.55228 0-1 .4477-1 1v28c0 .5523.44771 1 1 1h50c.5523 0 1-.4477 1-1v-28c0-.5523-.4477-1-1-1z" fill-rule="evenodd"/><path clip-rule="evenodd" d="m15 33c-1.6569 0-3 1.3431-3 3s1.3431 3 3 3 3-1.3431 3-3-1.3431-3-3-3zm-5 3c0-2.7614 2.2386-5 5-5s5 2.2386 5 5-2.2386 5-5 5-5-2.2386-5-5z" fill-rule="evenodd"/><path clip-rule="evenodd" d="m10.8004 47.3623c-1.04624.6277-1.46715 1.3556-1.46715 1.971h-2c0-1.5939 1.07148-2.866 2.43813-3.686 1.38652-.8319 3.23752-1.314 5.22852-1.314s3.842.4821 5.2286 1.314c1.3666.82 2.4381 2.0921 2.4381 3.686h-2c0-.6154-.4209-1.3433-1.4671-1.971-1.0263-.6158-2.5087-1.029-4.1996-1.029s-3.1732.4132-4.1995 1.029z" fill-rule="evenodd"/><path d="m29 32c0-.5523.4477-1 1-1h8.6667c.5523 0 1 .4477 1 1s-.4477 1-1 1h-8.6667c-.5523 0-1-.4477-1-1z"/><path d="m29 36c0-.5523.4477-1 1-1h14c.5523 0 1 .4477 1 1s-.4477 1-1 1h-14c-.5523 0-1-.4477-1-1z"/><path d="m29 40c0-.5523.4477-1 1-1h6c.5523 0 1 .4477 1 1s-.4477 1-1 1h-6c-.5523 0-1-.4477-1-1z"/><path d="m29 48c0-.5523.4477-1 1-1h8c.5523 0 1 .4477 1 1s-.4477 1-1 1h-8c-.5523 0-1-.4477-1-1z"/><path d="m29 44c0-.5523.4477-1 1-1h11.3333c.5523 0 1 .4477 1 1s-.4477 1-1 1h-11.3333c-.5523 0-1-.4477-1-1z"/></g><path d="m63 24c0 6.6274-5.3726 12-12 12s-12-5.3726-12-12 5.3726-12 12-12 12 5.3726 12 12z" fill="var(--icons-secondary, #333333)" opacity=".15"/><path d="m63 19c0 6.6274-5.3726 12-12 12s-12-5.3726-12-12 5.3726-12 12-12 12 5.3726 12 12z" fill="var(--icons-bg-fill, #ffffff)"/><path clip-rule="evenodd" d="m51 8c-6.0751 0-11 4.9249-11 11s4.9249 11 11 11 11-4.9249 11-11-4.9249-11-11-11zm-13 11c0-7.1797 5.8203-13 13-13s13 5.8203 13 13-5.8203 13-13 13-13-5.8203-13-13z" fill="var(--icons-primary, #0097db)" fill-rule="evenodd"/><path d="m63 21c0 5.5228-5.3726 10-12 10s-12-4.4772-12-10 5.3726-10 12-10 12 4.4772 12 10z" fill="var(--icons-primary, #0097db)" opacity=".2"/><path d="m50 13c0-.5523.4477-1 1-1s1 .4477 1 1v8c0 .5523-.4477 1-1 1s-1-.4477-1-1z" fill="var(--icons-primary, #0097db)"/><path d="m50 25c0-.5523.4477-1 1-1s1 .4477 1 1-.4477 1-1 1-1-.4477-1-1z" fill="var(--icons-primary, #0097db)"/></svg>