<svg id="social-color-icon-weibo"  fill="none" height="32" viewBox="0 0 32 32" width="32" xmlns="http://www.w3.org/2000/svg" xmlns:xlink="http://www.w3.org/1999/xlink"><clipPath id="a"><path d="m0 0h32v32h-32z"/></clipPath><g clip-path="url(#a)"><path d="m22.6668 19.3333c-.4-3.8667-5.0667-6.5333-10.6667-5.9333-3.26668.3333-6.26668 1.7333-7.93335 3.7333-1.06666 1.2667-1.53333 2.7333-1.4 4.2.33334 3.5333 4.26667 6 9.20005 6 .4666 0 .9333 0 1.4666-.0667 3.2667-.3333 6.2667-1.7333 7.9334-3.7333 1.0666-1.2667 1.5333-2.7333 1.4-4.2z" fill="#fff"/><path d="m13.2002 25.9333c-4.73337.4667-8.8667-1.6666-9.20004-4.7333-.33333-3.0667 3.33334-6 8.06664-6.4667 4.8-.4666 8.8667 1.6667 9.2 4.7334.3334 3.1333-3.2666 6-8.0666 6.4666zm9.9333-10c-.4-.1333-.6667-.2-.4667-.7333.4667-1.1333.5334-2.1333 0-2.8667-.9333-1.3333-3.5333-1.2666-6.4666-.0666 0 0-.9334.4-.6667-.3334.4667-1.4666.4-2.66665-.3333-3.33331-1.6-1.6-5.8667.06666-9.53337 3.66671-2.73333 2.7333-4.33333 5.6-4.33333 8.0666 0 4.8 6.13333 7.6667 12.2 7.6667 7.8667 0 13.1333-4.5333 13.1333-8.1333 0-2.2-1.8666-3.4-3.5333-3.9334z" fill="#d32f2f"/><path d="m13.9333 20.2667c-.2.3333-.6.5333-.9333.4s-.4-.5333-.2667-.8667c.2-.3333.6-.5333.8667-.3333.4.0667.4667.4.3333.8zm-2.2 1.6c-.4666.6667-1.5333 1-2.33331.6667-.8-.3334-1-1.1334-.53334-1.7334.46667-.6666 1.46665-.9333 2.26665-.6666.8667.2666 1.1334 1.0666.6 1.7333zm1.9334-5.0667c-2.3334-.6-4.93338.5334-5.93338 2.5334-1 2.0666-.06667 4.3333 2.33338 5.0666 2.4.8 5.2666-.4 6.2666-2.6 1-2.1333-.2666-4.4-2.6666-5z" fill="#263238"/><g fill="#f9a825"><path d="m29.2666 13.3332c-.2652 0-.5196.1054-.7071.2929s-.2929.4419-.2929.7071.1054.5196.2929.7071.4419.2929.7071.2929.5196-.1054.7071-.2929.2929-.4419.2929-.7071-.1054-.5196-.2929-.7071-.4419-.2929-.7071-.2929z"/><path d="m30.1998 14.6667c-.1333.4-.5333.6666-.9333.6666-.5333 0-1-.4666-1-1 0-.1333 0-.2666.0667-.4.2-.6.3333-1.2666.3333-1.9333 0-3.33333-2.6667-6-6-6-.2667 0-.6 0-.8667.06667 0 0 0 0-.0666 0h-.0667c-.5333 0-1-.46667-1-1 0-.53334.4667-1 1-1 .3333-.06667.6667-.06667 1-.06667 4.4 0 8 3.6 8 8 0 .9333-.1333 1.8-.4667 2.6667zm-3.5333-2.6667c0-2.2-1.8-4-4-4-.1333 0-.2667 0-.4667 0 0 0 0 0-.0666 0-.4667.06667-.8667.46667-.8667 1s.4667 1 1 1h.0667.2666c1.1334 0 2 .8667 2 2 0 .2-.0666.4667-.1333.6667-.0667.1333-.0667.2-.0667.3333 0 .5333.4667 1 1 1 .4 0 .7334-.2667.9334-.6v-.0667c0-.0666 0-.0666.0666-.1333.2-.4.2667-.8.2667-1.2z"/></g></g></svg>