<svg id="social-color-icon-linkedin"  fill="none" height="32" viewBox="0 0 32 32" width="32" xmlns="http://www.w3.org/2000/svg"><path d="m.0253906 2.29228c0-1.26565 1.0520294-2.29227809 2.3498294-2.29227809h27.09858c1.2978 0 2.3498 1.02662809 2.3498 2.29227809v27.41542c0 1.2661-1.052 2.2923-2.3498 2.2923h-27.09858c-1.2978 0-2.3498294-1.0262-2.3498294-2.2923z" fill="#0a66c2"/><g clip-rule="evenodd" fill="#fff" fill-rule="evenodd"><path d="m9.66439 26.7873v-14.4498h-4.80284v14.4498zm-2.40144-16.4226c1.67485 0 2.71731-1.10962 2.71731-2.49628-.03122-1.41787-1.04246-2.49667-2.68553-2.49667-1.64291 0-2.71709 1.0788-2.71709 2.49667 0 1.38666 1.04223 2.49628 2.65401 2.49628h.03121z"/><path d="m12.3213 26.7873h4.8028v-8.0694c0-.4318.0312-.8632.158-1.172.3472-.8628 1.1375-1.7565 2.4643-1.7565 1.7379 0 2.4331 1.3251 2.4331 3.2676v7.7303h4.8024v-8.2853c0-4.4383-2.3694-6.5035-5.5293-6.5035-2.591 0-3.7285 1.4482-4.3605 2.4346h.0321v-2.0956h-4.8028c.063 1.3559 0 14.4498 0 14.4498z"/></g></svg>