<svg id="social-color-icon-instagram" width="32" height="32" viewBox="0 0 32 32" fill="none" xmlns="http://www.w3.org/2000/svg">
<g clip-path="url(#clip0)">
<path d="M16.0079 0.242416C9.4282 0.242416 7.5039 0.249204 7.12985 0.280233C5.77959 0.392472 4.93937 0.605072 4.024 1.06082C3.31857 1.41111 2.76222 1.81716 2.21315 2.38635C1.21318 3.42438 0.607136 4.70143 0.387749 6.21945C0.281085 6.9564 0.250056 7.10669 0.243753 10.8709C0.241329 12.1257 0.243753 13.777 0.243753 15.992C0.243753 22.5663 0.251026 24.4887 0.28254 24.862C0.391627 26.1759 0.597682 27.0026 1.03403 27.9068C1.86795 29.6376 3.46063 30.937 5.33693 31.4218C5.98661 31.5891 6.70416 31.6812 7.62535 31.7249C8.01564 31.7418 11.9937 31.7539 15.9742 31.7539C19.9547 31.7539 23.9352 31.7491 24.3158 31.7297C25.3824 31.6795 26.0018 31.5964 26.6866 31.4194C28.575 30.9322 30.1386 29.6522 30.9895 27.8971C31.4174 27.0147 31.6343 26.1565 31.7325 24.9112C31.7538 24.6397 31.7628 20.3109 31.7628 15.9879C31.7628 11.6641 31.7531 7.34329 31.7318 7.07179C31.6324 5.80637 31.4154 4.95549 30.9737 4.05612C30.6113 3.3199 30.2089 2.7701 29.6247 2.20793C28.582 1.21208 27.3069 0.606042 25.7875 0.386897C25.0512 0.280476 24.9046 0.248962 21.1374 0.242416H16.0079Z" fill="url(#paint0_radial)"/>
<path d="M16.0079 0.242416C9.4282 0.242416 7.5039 0.249204 7.12985 0.280233C5.77959 0.392472 4.93937 0.605072 4.024 1.06082C3.31857 1.41111 2.76222 1.81716 2.21315 2.38635C1.21318 3.42438 0.607136 4.70143 0.387749 6.21945C0.281085 6.9564 0.250056 7.10669 0.243753 10.8709C0.241329 12.1257 0.243753 13.777 0.243753 15.992C0.243753 22.5663 0.251026 24.4887 0.28254 24.862C0.391627 26.1759 0.597682 27.0026 1.03403 27.9068C1.86795 29.6376 3.46063 30.937 5.33693 31.4218C5.98661 31.5891 6.70416 31.6812 7.62535 31.7249C8.01564 31.7418 11.9937 31.7539 15.9742 31.7539C19.9547 31.7539 23.9352 31.7491 24.3158 31.7297C25.3824 31.6795 26.0018 31.5964 26.6866 31.4194C28.575 30.9322 30.1386 29.6522 30.9895 27.8971C31.4174 27.0147 31.6343 26.1565 31.7325 24.9112C31.7538 24.6397 31.7628 20.3109 31.7628 15.9879C31.7628 11.6641 31.7531 7.34329 31.7318 7.07179C31.6324 5.80637 31.4154 4.95549 30.9737 4.05612C30.6113 3.3199 30.2089 2.7701 29.6247 2.20793C28.582 1.21208 27.3069 0.606042 25.7875 0.386897C25.0512 0.280476 24.9046 0.248962 21.1374 0.242416H16.0079Z" fill="url(#paint1_radial)"/>
<path d="M16.0003 4.3635C12.8401 4.3635 12.4435 4.37732 11.2023 4.4338C9.9636 4.49053 9.11805 4.68664 8.37819 4.97439C7.61288 5.2716 6.96369 5.66916 6.31692 6.31617C5.66967 6.96294 5.2721 7.61213 4.97393 8.3772C4.68545 9.1173 4.4891 9.96309 4.43334 11.2014C4.37783 12.4425 4.36328 12.8394 4.36328 15.9995C4.36328 19.1597 4.37734 19.555 4.43358 20.7962C4.49055 22.035 4.68667 22.8805 4.97417 23.6204C5.27162 24.3857 5.66918 25.0349 6.31619 25.6816C6.96272 26.3289 7.61191 26.7274 8.37674 27.0246C9.11708 27.3124 9.96287 27.5085 11.2014 27.5652C12.4426 27.6217 12.8389 27.6355 15.9988 27.6355C19.1592 27.6355 19.5546 27.6217 20.7958 27.5652C22.0345 27.5085 22.881 27.3124 23.6214 27.0246C24.3864 26.7274 25.0347 26.3289 25.6812 25.6816C26.3284 25.0349 26.726 24.3857 27.0242 23.6206C27.3102 22.8805 27.5066 22.0347 27.5648 20.7965C27.6205 19.5553 27.6351 19.1597 27.6351 15.9995C27.6351 12.8394 27.6205 12.4428 27.5648 11.2016C27.5066 9.96285 27.3102 9.1173 27.0242 8.37744C26.726 7.61213 26.3284 6.96294 25.6812 6.31617C25.0339 5.66892 24.3867 5.27135 23.6206 4.97439C22.8788 4.68664 22.0328 4.49053 20.7941 4.4338C19.5529 4.37732 19.1577 4.3635 15.9966 4.3635H16.0003ZM14.9564 6.46041C15.2662 6.45992 15.6119 6.46041 16.0003 6.46041C19.1071 6.46041 19.4753 6.47156 20.7022 6.52732C21.8367 6.57919 22.4524 6.76876 22.8626 6.92803C23.4056 7.13893 23.7928 7.39105 24.1998 7.79831C24.607 8.20557 24.8591 8.59343 25.0705 9.13645C25.2298 9.54613 25.4196 10.1619 25.4712 11.2964C25.527 12.523 25.5391 12.8915 25.5391 15.9968C25.5391 19.1022 25.527 19.4707 25.4712 20.6973C25.4194 21.8318 25.2298 22.4476 25.0705 22.8572C24.8596 23.4003 24.607 23.7869 24.1998 24.1939C23.7925 24.6012 23.4059 24.8533 22.8626 25.0642C22.4529 25.2242 21.8367 25.4133 20.7022 25.4652C19.4756 25.5209 19.1071 25.533 16.0003 25.533C12.8932 25.533 12.525 25.5209 11.2983 25.4652C10.1638 25.4128 9.54809 25.2232 9.13768 25.064C8.59467 24.8531 8.2068 24.601 7.79954 24.1937C7.39228 23.7864 7.14017 23.3995 6.92878 22.8563C6.76951 22.4466 6.5797 21.8309 6.52806 20.6963C6.47231 19.4697 6.46116 19.1012 6.46116 15.9939C6.46116 12.8866 6.47231 12.5201 6.52806 11.2935C6.57994 10.159 6.76951 9.54322 6.92878 9.13305C7.13968 8.59004 7.39228 8.20217 7.79954 7.79491C8.2068 7.38765 8.59467 7.13554 9.13768 6.92415C9.54785 6.76416 10.1638 6.57507 11.2983 6.52295C12.3718 6.47447 12.7878 6.45992 14.9564 6.4575V6.46041ZM22.2115 8.39247C21.4406 8.39247 20.8151 9.01718 20.8151 9.78831C20.8151 10.5592 21.4406 11.1846 22.2115 11.1846C22.9824 11.1846 23.6078 10.5592 23.6078 9.78831C23.6078 9.01742 22.9824 8.39199 22.2115 8.39199V8.39247ZM16.0003 10.0239C12.7002 10.0239 10.0247 12.6995 10.0247 15.9995C10.0247 19.2995 12.7002 21.9739 16.0003 21.9739C19.3003 21.9739 21.9749 19.2995 21.9749 15.9995C21.9749 12.6995 19.3 10.0239 16 10.0239H16.0003ZM16.0003 12.1208C18.1423 12.1208 19.8789 13.8573 19.8789 15.9995C19.8789 18.1415 18.1423 19.8782 16.0003 19.8782C13.858 19.8782 12.1216 18.1415 12.1216 15.9995C12.1216 13.8573 13.858 12.1208 16.0003 12.1208Z" fill="white"/>
</g>
<defs>
<radialGradient id="paint0_radial" cx="0" cy="0" r="1" gradientUnits="userSpaceOnUse" gradientTransform="translate(8.61525 34.181) rotate(-90) scale(31.2303 29.0545)">
<stop stop-color="#FFDD55"/>
<stop offset="0.1" stop-color="#FFDD55"/>
<stop offset="0.5" stop-color="#FF543E"/>
<stop offset="1" stop-color="#C837AB"/>
</radialGradient>
<radialGradient id="paint1_radial" cx="0" cy="0" r="1" gradientUnits="userSpaceOnUse" gradientTransform="translate(-5.03711 2.51245) rotate(78.6776) scale(13.9602 57.559)">
<stop stop-color="#3771C8"/>
<stop offset="0.128" stop-color="#3771C8"/>
<stop offset="1" stop-color="#6600FF" stop-opacity="0"/>
</radialGradient>
<clipPath id="clip0">
<rect width="32" height="31.999" fill="white"/>
</clipPath>
</defs>
</svg>
