<svg id="social-color-icon-facebook" fill="none" height="32" viewBox="0 0 32 32" width="32" xmlns="http://www.w3.org/2000/svg"><path d="m32 16c0-8.83589-7.1641-16-16-16-8.83589 0-16 7.16411-16 16 0 7.9854 5.85009 14.605 13.5002 15.8065v-11.1804h-4.06355v-4.6261h4.06355v-3.5258c0-4.00957 2.3895-6.22585 6.0436-6.22585 1.7505 0 3.5821.31275 3.5821.31275v3.9376h-2.0183c-1.9868 0-2.6078 1.233-2.6078 2.4998v3.0015h4.4371l-.7088 4.6261h-3.7283v11.1804c7.6501-1.1993 13.5002-7.8189 13.5002-15.8065z" fill="#1977f3"/><path d="m22.228 20.6261.7087-4.6261h-4.437v-3.0016c0-1.2645.6187-2.4997 2.6078-2.4997h2.0182v-3.9376s-1.8315-.31276-3.582-.31276c-3.6541 0-6.0436 2.21404-6.0436 6.22586v3.5258h-4.06358v4.6261h4.06358v11.1804c.8145.1282 1.6493.1935 2.4998.1935s1.6853-.0675 2.4998-.1935v-11.1804z" fill="#fefefe"/></svg>