<svg id="social-color-icon-twitter"  fill="none" height="32" viewBox="0 0 32 32" width="32" xmlns="http://www.w3.org/2000/svg"><path d="m30.7365 6.01339c-1.034.458-2.146.76333-3.3193.908 1.1927-.708 2.1107-1.83733 2.5413-3.172-1.116.654-2.3526 1.13467-3.668 1.388-1.0506-1.11333-2.5493-1.804-4.2093-1.804-3.1887 0-5.774 2.562-5.774 5.72133 0 .44734.0527.88267.1507 1.30538-4.7974-.2407-9.05269-2.52138-11.89935-5.98271-.5.846-.78134 1.836-.78134 2.88133 0 1.986 1.01667 3.73468 2.56734 4.76468-.94667-.0287-1.83733-.292-2.61733-.7147v.0674c0 2.7753 1.99066 5.0866 4.62933 5.6126-.482.132-.992.2054-1.51733.2054-.37267 0-.73601-.042-1.08801-.1054.73467 2.268 2.86601 3.926 5.39129 3.9754-1.97595 1.532-4.46462 2.4493-7.17062 2.4493-.46733 0-.92467-.0267-1.37667-.0813 2.558 1.6193 5.59334 2.568 8.85199 2.568 10.618 0 16.4273-8.7194 16.4273-16.28404 0-.248-.008-.49467-.0193-.73867 1.1333-.80067 2.11-1.81 2.8813-2.964z" fill="#41abe1"/></svg>