<svg id="social-color-icon-vk" fill="none" height="32" viewBox="0 0 32 32" width="32" xmlns="http://www.w3.org/2000/svg"><g clip-rule="evenodd" fill-rule="evenodd"><path d="m11.0882 0h9.8236c8.9654 0 11.0882 2.12279 11.0882 11.0882v9.8236c0 8.9654-2.1228 11.0882-11.0882 11.0882h-9.8236c-8.96541 0-11.0882-2.1228-11.0882-11.0882v-9.8236c0-8.96541 2.12279-11.0882 11.0882-11.0882z" fill="#4680c2"/><path d="m26.4823 10.9021c.1631-.5089 0-.879-.7223-.879h-2.3999c-.6057 0-.8853.3239-1.0484.6709 0 0-1.2349 2.9608-2.9591 4.8807-.5592.5552-.8155.7402-1.1184.7402-.1631 0-.3728-.185-.3728-.6939v-4.742c0-.6014-.1864-.879-.699-.879h-3.7745c-.3728 0-.6058.2776-.6058.5552 0 .5783.8621.717.9553 2.3363v3.516c0 .7633-.1398.9021-.4427.9021-.8155 0-2.796-2.984-3.98426-6.3843-.233-.6709-.46599-.9253-1.07179-.9253h-2.42316c-.69899 0-.81549.3238-.81549.6708 0 .6246.81549 3.7705 3.79785 7.9342 1.98045 2.8452 4.79975 4.3719 7.33935 4.3719 1.5378 0 1.7242-.347 1.7242-.9253v-2.1512c0-.694.1398-.8097.6291-.8097.3495 0 .9786.1851 2.3999 1.5499 1.631 1.6192 1.9105 2.3594 2.8192 2.3594h2.3999c.699 0 1.0252-.347.8388-1.0178-.2097-.6708-1.0019-1.6423-2.0271-2.7989-.5592-.6477-1.398-1.3648-1.6543-1.7118-.3495-.4626-.2563-.6477 0-1.064-.0233 0 2.9125-4.1175 3.2154-5.5054z" fill="#fff"/></g></svg>