<svg id="social-color-icon-youtube"  fill="none" height="32" viewBox="0 0 32 32" width="32" xmlns="http://www.w3.org/2000/svg" xmlns:xlink="http://www.w3.org/1999/xlink"><clipPath id="a"><path d="m0 .666664h32v22h-32z"/></clipPath><g clip-path="url(#a)"><path d="m31.3409 4.10902c-.369-1.34589-1.4498-2.40706-2.8204-2.76941-2.5041-.672946-12.5206-.672946-12.5206-.672946s-10.0164 0-12.52051.647056c-1.34431.36236-2.45139 1.44941-2.820414 2.7953-.658976 2.45882-.658976 7.55768-.658976 7.55768s0 5.1247.658976 7.5576c.369024 1.3459 1.449744 2.4071 2.820414 2.7694 2.53047.673 12.52051.673 12.52051.673s10.0165 0 12.5206-.6471c1.3706-.3623 2.4514-1.4235 2.8204-2.7694.659-2.4588.659-7.5577.659-7.5577s.0263-5.12466-.659-7.58348z" fill="#f00"/><path d="m21.14 11.6666-8.3295-4.71058v9.42118z" fill="#fff"/></g></svg>