<svg id="social-color-icon-telegram"  fill="none" height="32" viewBox="0 0 32 32" width="32" xmlns="http://www.w3.org/2000/svg" xmlns:xlink="http://www.w3.org/1999/xlink"><linearGradient id="a" gradientUnits="userSpaceOnUse" x1="21.344" x2="13.344" y1="5.344" y2="24"><stop offset="0" stop-color="#37aee2"/><stop offset="1" stop-color="#1e96c8"/></linearGradient><linearGradient id="b" gradientTransform="matrix(16.71875 0 0 14.300781 7.144531 9.71875)" gradientUnits="userSpaceOnUse" x1=".66" x2=".851" y1=".437" y2=".802"><stop offset="0" stop-color="#eff7fc"/><stop offset="1" stop-color="#fff"/></linearGradient><path d="m32 16c0 8.835938-7.164062 16-16 16s-16-7.164062-16-16 7.164062-16 16-16 16 7.164062 16 16zm0 0" fill="url(#a)"/><path d="m13.066406 23.332031c-.519531 0-.429687-.195312-.609375-.6875l-1.523437-5.015625 11.734375-6.960937" fill="#c8daea"/><path d="m13.066406 23.332031c.398438 0 .578125-.179687.800782-.398437l2.132812-2.074219-2.660156-1.605469" fill="#a9c9dd"/><path d="m13.339844 19.253906 6.445312 4.765625c.738282.40625 1.269532.195313 1.453125-.683593l2.625-12.367188c.265625-1.078125-.414062-1.566406-1.117187-1.25l-15.410156 5.945312c-1.054688.421876-1.046876 1.007813-.191407 1.269532l3.953125 1.234375 9.15625-5.777344c.433594-.261719.828125-.121094.503906.167969" fill="url(#b)"/></svg>