<svg id="social-color-icon-paxful" fill="none" height="32" viewBox="0 0 32 32" width="32" xmlns="http://www.w3.org/2000/svg" xmlns:xlink="http://www.w3.org/1999/xlink"><clipPath id="a"><path d="m0 0h32v32h-32z"/></clipPath><g clip-path="url(#a)"><path d="m21.3535 15.8767 8.5873 11.9823h-5.6916c-.8345 0-1.669-.3444-2.2636-1.0331l-.1329-.1651-3.1953-4.3935c-.7589-1.0435-.7067-2.4474.0709-3.6126l.1288-.1819zm-11.2834-13.48022c.9272 0 1.6822.3444 2.185 1.03318l.1116.16506 1.6975 2.29662c.6578 1.03378.6965 2.33291.1161 3.31465l-.1161.18022-2.2966 3.29519-7.38918-10.28492z" fill="#454c59"/><path d="m32.3372 0-29.65644 31.8532c-.29956.3994-.89868-.0999-.59912-.4993l21.36856-30.15566c.5991-.798827 1.4978-1.19824 2.3965-1.19824z" fill="#00a5ef"/></g></svg>