<svg id="social-color-icon-reddit"  fill="none" height="32" viewBox="0 0 32 32" width="32" xmlns="http://www.w3.org/2000/svg" xmlns:xlink="http://www.w3.org/1999/xlink"><clipPath id="a"><path d="m-.041504-.048302h32.0413v32.0966h-32.0413z"/></clipPath><g clip-path="url(#a)"><path d="m15.6186.630943c8.79-.19793 15.9931 6.979267 15.7604 15.845957-.2122 8.0831-6.8464 15.0525-15.5919 14.9643-8.3326-.0838-15.186114-6.834-15.228018-15.4109.05082-8.56453 6.865108-15.213909 15.059518-15.399357zm11.2142 14.973157c.8167-.6054 1.3124-1.3891 1.2135-2.4474-.0963-1.0369-.6215-1.8081-1.5719-2.228-1.028-.4539-2.0114-.3255-2.8931.3949-.1008.0821-.1623.0856-.2657.0179-1.6352-1.078-3.4361-1.68156-5.3798-1.87859-.2175-.02229-.4351-.04547-.6847-.07133.4217-1.31418.8336-2.59449 1.2491-3.88728.0998.01605.1801.02497.2585.04191.9924.21308 1.9829.4333 2.977.63569.2051.04191.3058.11323.3638.32899.2746 1.01908 1.2892 1.66904 2.3145 1.5041 1.4096-.22736 2.1745-1.74571 1.4916-2.96182-.5456-.97182-2.2441-1.55313-3.3381-.28085-.1078.12482-.1988.15424-.3575.11947-1.2883-.28263-2.5784-.55367-3.8685-.82917-.5358-.11501-.7864.0321-.9513.55635-.4654 1.47645-.9326 2.9529-1.3962 4.42935-.0401.1275-.0731.22111-.2461.22022-.8702-.00535-1.7279.11769-2.5784.2969-1.5255.32275-2.9449.89866-4.2341 1.77866-.11768.0803-.1899.0473-.29778-.0017-.44133-.2042-.87285-.4583-1.33736-.5814-1.6084-.4261-3.51814.8809-3.18915 3.0287.12927.8444.63123 1.4551 1.32309 1.9187.11323.0758.13909.1444.11858.2693-.19436 1.1617-.07311 2.2886.39586 3.3728.66689 1.5424 1.81345 2.656 3.20787 3.5351 1.59059 1.0039 3.35499 1.5121 5.20499 1.7448 1.6182.2033 3.2275.1266 4.8172-.2327 2.2878-.5162 4.325-1.4978 5.8933-3.2961 1.2437-1.4266 1.7947-3.0849 1.5388-4.9768-.0339-.2532.0268-.3754.222-.5207z" fill="#ff3f18"/><path d="m28.0463 13.1564c.0989 1.0574-.3968 1.8419-1.2135 2.4473-.1961.1453-.2567.2675-.222.5198.2559 1.8919-.2951 3.5503-1.5388 4.9768-1.5683 1.7983-3.6056 2.7799-5.8933 3.2961-1.5897.3584-3.199.4351-4.8172.2327-1.85-.2327-3.6144-.7409-5.20502-1.7448-1.39353-.8791-2.54098-1.9936-3.20788-3.5351-.46897-1.0841-.58933-2.2111-.39586-3.3728.02051-.1248-.00446-.1935-.11858-.2693-.69186-.4636-1.19382-1.0743-1.32309-1.9186-.32899-2.1478 1.58076-3.4549 3.18916-3.0287.4654.123.89603.3771 1.33736.5813.10788.0499.1801.082.29778.0018 1.29013-.88 2.70863-1.45594 4.23413-1.77869.8505-.1801 1.7082-.30313 2.5784-.29689.1721.00089.2059-.09183.2461-.22022.4636-1.47734.9308-2.95289 1.3962-4.42933.1649-.52425.4154-.67136.9513-.55634 1.2901.27549 2.5802.54653 3.8685.82916.1596.03477.2505.00535.3575-.11947 1.094-1.27228 2.7916-.69097 3.3381.28084.6829 1.21611-.082 2.73446-1.4916 2.96181-1.0253.16494-2.0408-.48502-2.3136-1.50498-.058-.21576-.1596-.28708-.3638-.32899-.995-.20239-1.9855-.4226-2.977-.63569-.0784-.01694-.1587-.02586-.2585-.0419-.4155 1.29278-.8265 2.57307-1.2491 3.88725.2496.02586.4672.04904.6847.07133 1.9427.19704 3.7446.80061 5.3798 1.87851.1034.0678.1649.0642.2656-.0178.8818-.7204 1.8652-.8479 2.8932-.395.9495.4217 1.4738 1.193 1.571 2.2299zm-8.2801 4.1449c.8622-.0009 1.6289-.765 1.6254-1.6191-.0036-.9094-.7409-1.653-1.6343-1.6503-.8675.0027-1.6236.7444-1.6227 1.5905.0009.9255.7347 1.6798 1.6316 1.6789zm.3852 3.0973c.1872-.2167.1391-.4743-.033-.6446-.239-.2372-.5474-.3031-.7873-.1658-.0963.0552-.1845.1239-.279.1818-1.6521 1.004-3.3782 1.16-5.1667.4164-.3664-.1525-.7035-.3789-1.0485-.5795-.2568-.1498-.5795-.0972-.8256.1516-.1623.1631-.1828.444-.0205.674.0918.1293.2158.2461.3459.337 1.1181.7846 2.3752 1.1118 3.8293 1.1287.1578-.0116.4164-.0258.675-.0499.904-.0829 1.7662-.321 2.5463-.7899.2844-.173.5447-.4084.7641-.6598zm-7.7255-3.0973c.8104-.0018 1.587-.7971 1.5834-1.6227-.0035-.8951-.7551-1.6467-1.6449-1.6458-.8782 0-1.6263.7542-1.6245 1.6378.0027.8933.7668 1.6325 1.686 1.6307z" fill="#fff"/><g fill="#ff3f18"><path d="m21.3923 15.6825c.0036.8541-.7632 1.6182-1.6254 1.6191-.897.0009-1.6308-.7534-1.6316-1.6788-.0009-.847.7552-1.5878 1.6227-1.5905.8934-.0036 1.6299.74 1.6343 1.6502z"/><path d="m20.119 19.7544c.1721.1703.2202.4279.033.6445-.2194.2523-.4797.4877-.765.6589-.7802.4689-1.6423.7069-2.5464.7898-.2586.0241-.5162.0384-.6749.0499-1.4542-.016-2.7114-.3441-3.8294-1.1286-.1311-.0918-.2541-.2077-.3459-.337-.1623-.23-.1418-.5117.0205-.6739.2469-.2488.5688-.3005.8256-.1516.345.2015.682.427 1.0485.5795 1.7885.7444 3.5146.5875 5.1667-.4164.0946-.057.1837-.1257.2791-.1818.2407-.1373.5492-.0704.7882.1667z"/><path d="m14.0111 15.6781c.0036.8256-.773 1.6209-1.5834 1.6227-.9201.0018-1.6833-.7373-1.686-1.6316-.0018-.8835.7463-1.6378 1.6245-1.6378.8898 0 1.6414.7516 1.6449 1.6467z"/></g></g></svg>